<?xml version="1.0" standalone="no"?>
<!DOCTYPE svg PUBLIC "-//W3C//DTD SVG 20010904//EN"
 "http://www.w3.org/TR/2001/REC-SVG-20010904/DTD/svg10.dtd">
<svg version="1.0" xmlns="http://www.w3.org/2000/svg"
 width="3840.000000pt" height="3840.000000pt" viewBox="0 0 3840.000000 3840.000000"
 preserveAspectRatio="xMidYMid meet">

<g transform="translate(0.000000,3840.000000) scale(0.100000,-0.100000)"
fill="#0090d1" stroke="none">
<path d="M19719 32043 c-2 -149 2 -768 6 -813 5 -69 15 -104 32 -120 9 -8 13
-10 10 -4 -3 6 0 11 8 11 8 0 12 -4 10 -8 -3 -3 2 -13 11 -20 14 -12 14 -14 1
-24 -14 -10 -15 -47 -13 -261 2 -235 4 -251 24 -289 12 -22 20 -46 17 -53 -3
-7 -1 -11 3 -8 5 3 9 -23 10 -57 0 -34 4 -154 7 -267 10 -405 16 -672 21
-1080 6 -435 6 -508 5 -890 -1 -292 5 -356 35 -381 12 -10 12 -14 2 -20 -8 -5
-9 -9 -2 -9 7 0 9 -11 6 -25 -2 -14 -8 -25 -14 -25 -5 0 -4 -10 3 -21 8 -15 8
-19 0 -15 -11 7 -13 -3 -12 -64 1 -127 4 -150 15 -143 8 5 8 3 -1 -8 -7 -9
-12 -61 -12 -144 0 -134 4 -169 20 -160 5 3 6 -1 3 -10 -7 -18 14 -47 29 -38
6 3 7 1 3 -6 -6 -8 -12 -9 -20 -2 -9 8 -13 7 -13 -4 0 -8 7 -15 14 -15 8 0 11
-5 7 -12 -4 -6 -1 -16 7 -22 26 -21 61 -87 60 -116 -1 -393 1 -816 5 -850 2
-25 6 -279 8 -565 2 -286 6 -530 9 -543 4 -13 9 -64 12 -114 3 -50 9 -96 12
-102 4 -5 8 -22 9 -36 3 -50 47 -125 67 -114 7 4 9 4 5 0 -4 -5 -2 -19 3 -33
5 -13 11 -68 14 -121 3 -53 8 -133 11 -177 3 -44 6 -125 6 -180 0 -56 6 -114
14 -132 7 -17 11 -33 9 -35 -3 -2 2 -28 10 -58 8 -29 12 -57 9 -62 -3 -4 6
-12 20 -18 14 -5 26 -14 26 -20 0 -6 6 -8 13 -4 6 4 9 4 5 -1 -4 -4 -1 -20 7
-35 8 -16 17 -65 20 -110 2 -45 10 -94 17 -108 8 -15 15 -71 16 -126 2 -55 7
-107 12 -116 5 -9 12 -39 16 -66 3 -27 10 -51 15 -52 5 -2 7 -8 3 -13 -3 -5 2
-9 11 -9 9 0 13 5 10 10 -3 6 -2 10 3 10 12 0 25 -47 17 -60 -3 -4 0 -10 7
-12 6 -2 12 -13 14 -24 6 -54 23 -117 33 -123 14 -9 20 -36 26 -136 8 -128 17
-161 46 -168 12 -3 18 -10 14 -16 -3 -6 -2 -11 3 -11 15 0 52 -76 57 -116 2
-19 7 -39 10 -44 3 -6 8 -20 11 -32 8 -38 12 -53 14 -53 0 0 1 -36 2 -80 1
-88 15 -117 58 -123 25 -4 55 -28 57 -47 1 -5 5 -32 9 -60 3 -27 10 -57 14
-65 7 -13 18 -81 19 -117 1 -7 6 -13 12 -13 5 0 7 6 3 13 -5 7 -1 7 12 -3 29
-22 30 -24 11 -17 -12 5 -7 -4 13 -24 17 -17 29 -36 27 -43 -2 -6 5 -24 17
-41 11 -16 21 -32 21 -35 3 -23 19 -95 32 -137 13 -40 21 -53 36 -53 16 0 17
-2 7 -16 -8 -8 -9 -14 -4 -13 5 1 14 1 20 0 13 -1 61 -41 49 -41 -4 0 -2 -7 5
-15 7 -8 9 -15 5 -15 -4 0 -2 -7 5 -15 7 -8 13 -38 13 -67 0 -47 3 -55 41 -91
22 -21 36 -37 31 -34 -6 3 -17 2 -25 -4 -13 -7 -12 -9 2 -9 48 0 87 -45 93
-105 6 -64 20 -96 61 -139 25 -25 49 -46 53 -46 14 0 61 -105 61 -135 0 -66
37 -140 65 -131 6 2 22 -3 37 -10 27 -14 47 -60 49 -114 1 -35 32 -84 55 -89
20 -3 54 -34 54 -49 0 -5 9 -17 20 -27 11 -10 18 -20 16 -22 -2 -3 4 -13 15
-24 10 -10 19 -31 19 -46 0 -20 3 -24 9 -14 10 16 34 5 28 -12 -2 -7 -10 -12
-18 -12 -7 0 -15 -9 -16 -20 -3 -18 -2 -18 5 -2 4 10 11 18 15 18 12 0 78 -69
81 -83 1 -7 15 -39 31 -71 20 -38 37 -60 52 -63 13 -4 23 -11 23 -17 0 -6 3
-8 6 -4 9 9 55 -36 50 -49 -3 -7 3 -23 12 -36 9 -13 22 -32 28 -43 6 -11 25
-30 42 -41 17 -12 28 -24 25 -28 -4 -3 -1 -6 6 -6 7 0 9 -5 5 -12 -4 -6 -3 -8
2 -5 6 3 28 -15 49 -40 22 -24 50 -49 63 -54 13 -5 28 -22 33 -39 6 -16 14
-28 18 -25 10 5 36 -42 36 -64 1 -40 49 -97 105 -125 31 -16 57 -34 58 -40 0
-6 3 -20 6 -31 2 -11 5 -24 5 -28 1 -5 5 -6 10 -3 5 4 7 -2 4 -12 -3 -12 4
-23 21 -32 14 -7 26 -17 26 -22 0 -4 7 -8 15 -8 9 0 27 -12 40 -26 19 -21 22
-30 14 -40 -9 -11 -8 -14 4 -14 9 0 18 -12 22 -30 7 -34 11 -37 48 -44 15 -2
32 -8 39 -13 7 -4 17 -8 22 -8 5 0 10 -7 12 -15 10 -53 15 -66 30 -75 23 -13
129 -108 129 -115 1 -21 25 -40 100 -79 37 -20 45 -30 45 -58 0 -25 60 -93 82
-93 21 -1 58 -36 68 -67 12 -32 114 -108 135 -99 12 4 25 -15 24 -37 0 -19 37
-67 53 -67 10 0 21 -7 24 -15 4 -8 10 -13 14 -10 5 3 11 1 15 -5 3 -5 15 -10
26 -10 20 0 79 -53 79 -70 0 -6 11 -10 24 -10 14 0 28 -5 31 -10 4 -6 11 -8
16 -5 5 4 9 -2 9 -12 0 -12 3 -14 8 -6 5 8 16 -3 31 -32 17 -31 31 -46 52 -50
15 -4 31 -15 34 -26 4 -10 12 -19 19 -19 7 0 21 -8 32 -17 10 -10 31 -24 47
-32 15 -8 27 -18 27 -23 0 -4 4 -8 9 -8 21 0 78 -47 92 -75 8 -16 20 -29 27
-28 6 2 12 -2 12 -7 0 -6 8 -10 18 -10 10 0 28 -7 40 -16 12 -8 22 -12 22 -8
0 3 6 1 13 -5 8 -6 17 -8 20 -4 4 3 9 -2 13 -11 3 -9 10 -13 15 -10 5 3 9 -2
9 -10 0 -9 7 -16 15 -16 8 0 12 -6 9 -14 -3 -8 0 -17 7 -22 7 -4 10 -3 5 4 -3
6 -1 14 5 18 7 4 9 3 5 -4 -8 -13 20 -42 40 -42 7 0 40 -20 71 -44 32 -24 73
-51 92 -60 18 -10 35 -26 38 -35 5 -21 57 -41 106 -41 26 0 41 -6 49 -20 7
-11 21 -20 31 -20 10 0 16 -4 13 -8 -3 -5 11 -16 30 -26 22 -10 34 -22 31 -30
-6 -14 48 -43 92 -49 13 -2 29 -11 36 -20 7 -9 16 -17 21 -17 13 0 44 -38 44
-54 0 -21 32 -43 70 -49 35 -5 73 -14 78 -17 1 -2 11 -3 22 -4 23 -1 100 -70
100 -89 0 -12 76 -48 114 -54 22 -4 56 -36 56 -53 0 -5 5 -10 11 -10 6 0 8 -7
5 -16 -3 -9 4 -25 19 -40 22 -22 32 -25 67 -20 28 4 60 -1 104 -16 35 -12 62
-24 59 -26 -3 -3 5 -14 18 -26 12 -12 27 -33 34 -48 14 -32 62 -56 120 -62 23
-2 50 -11 58 -20 9 -9 13 -16 8 -17 -4 0 2 -4 15 -9 12 -5 30 -25 39 -44 17
-37 10 -34 156 -62 15 -3 27 -9 27 -14 0 -5 9 -11 19 -15 11 -3 19 -15 18 -28
-1 -56 18 -72 93 -82 30 -4 58 -9 62 -12 5 -2 27 -6 50 -9 47 -5 86 -36 92
-71 9 -45 59 -79 121 -82 26 -1 46 -8 57 -21 9 -11 21 -20 27 -20 6 0 11 -3
11 -8 0 -4 14 -13 30 -20 17 -8 30 -19 30 -25 0 -14 111 -67 140 -67 11 0 20
-4 20 -8 0 -5 11 -14 23 -19 13 -6 31 -27 41 -47 9 -20 20 -35 24 -34 4 1 18
-4 32 -12 14 -8 30 -14 35 -15 17 0 150 -59 153 -67 2 -5 8 -6 12 -3 11 7 33
-32 26 -44 -3 -5 3 -16 14 -26 13 -11 20 -14 20 -6 0 7 5 9 12 5 7 -4 24 -9
38 -9 56 -3 190 -90 172 -111 -4 -4 -2 -4 4 -1 6 4 20 -3 30 -14 9 -11 38 -25
63 -31 25 -6 40 -13 33 -16 -16 -5 25 -37 48 -37 23 0 50 -32 50 -61 0 -14 4
-23 9 -20 5 3 14 -1 21 -9 8 -10 31 -15 67 -15 47 0 61 -5 96 -32 23 -18 38
-26 33 -18 -4 8 0 6 8 -4 9 -11 16 -16 16 -12 0 5 7 3 15 -4 8 -7 15 -28 15
-46 0 -31 3 -34 28 -33 62 3 175 -44 155 -65 -4 -3 -2 -6 4 -6 6 0 9 -8 6 -19
-6 -23 34 -63 62 -60 18 2 39 -2 96 -17 8 -2 24 -12 35 -22 10 -9 36 -26 58
-37 21 -11 42 -30 47 -42 5 -13 13 -24 19 -24 12 -2 14 -2 69 -18 24 -7 55
-24 70 -39 14 -15 29 -26 34 -24 4 1 7 -3 7 -8 0 -6 7 -10 15 -10 8 0 15 -5
15 -11 0 -5 4 -8 9 -4 5 3 16 -2 25 -11 9 -8 20 -12 26 -9 6 3 17 -1 26 -9 8
-9 22 -16 30 -16 8 0 13 -4 10 -9 -4 -5 11 -12 32 -16 21 -3 51 -17 67 -31 15
-13 31 -24 35 -24 3 0 16 -9 28 -20 14 -13 22 -16 22 -8 0 10 2 10 9 0 4 -8
12 -13 17 -12 5 0 10 -8 12 -20 2 -11 8 -20 13 -20 6 0 7 -5 4 -10 -3 -6 1
-10 10 -10 10 0 14 5 10 13 -4 6 0 4 8 -5 8 -10 24 -18 37 -18 29 0 102 -72
94 -93 -4 -11 5 -17 38 -22 24 -4 54 -14 68 -23 14 -9 42 -25 63 -34 21 -10
36 -22 33 -27 -3 -5 1 -12 10 -15 8 -3 13 -10 9 -15 -3 -5 0 -13 6 -17 8 -4 9
-3 5 4 -4 7 -3 12 3 12 5 0 13 -5 16 -11 4 -6 13 -8 21 -5 7 3 22 -6 33 -19
10 -14 24 -25 30 -25 6 0 19 -4 29 -9 9 -5 34 -16 56 -25 21 -9 36 -19 33 -22
-10 -10 27 -44 49 -44 12 0 24 -6 27 -13 2 -7 26 -23 53 -35 27 -13 61 -30 75
-37 22 -12 26 -12 26 0 0 8 -5 11 -11 8 -6 -4 -5 1 3 10 10 12 12 31 7 65 -9
68 -11 81 -19 88 -4 4 -7 16 -7 26 0 10 -3 18 -7 19 -5 0 -16 2 -26 4 -9 2
-15 -1 -11 -6 12 -20 -10 -7 -32 19 -23 25 -27 40 -27 87 1 10 -9 35 -22 55
-12 19 -25 44 -29 56 -3 12 -18 26 -31 32 -14 7 -28 20 -32 29 -6 16 -24 41
-63 89 -5 7 -10 36 -12 65 -3 50 -5 55 -45 82 -26 17 -43 36 -43 48 0 10 -4
19 -10 19 -5 0 -10 5 -10 11 0 6 -7 17 -15 25 -8 8 -17 31 -21 52 -8 44 -20
61 -51 73 -14 5 -23 17 -23 29 0 26 -18 61 -39 77 -9 7 -12 13 -8 13 4 0 2 10
-5 23 -7 12 -20 49 -28 82 -11 40 -23 63 -36 70 -30 15 -54 41 -54 59 0 9 -4
16 -10 16 -5 0 -10 7 -10 16 0 8 -4 13 -9 10 -16 -10 -31 20 -35 70 -2 27 -7
56 -11 66 -5 13 -36 31 -55 30 -3 0 -11 6 -18 14 -7 8 -10 14 -6 14 3 0 -1 11
-10 25 -49 75 -68 122 -70 178 -1 31 -6 57 -11 56 -6 -1 -9 -5 -7 -10 1 -5
-11 -3 -28 6 -16 9 -30 20 -30 26 0 6 -4 7 -10 4 -5 -3 -10 0 -10 7 0 8 -11
29 -25 48 -20 27 -25 46 -25 94 -1 62 -15 96 -41 96 -15 1 -69 29 -56 30 5 0
1 7 -7 16 -9 8 -17 24 -17 35 -2 28 -3 30 -29 79 -13 25 -24 47 -25 50 -3 22
-29 50 -43 48 -11 -2 -17 4 -17 17 0 11 -4 25 -10 32 -5 7 -16 19 -23 28 -14
16 -33 101 -24 109 10 10 -18 33 -57 46 -43 14 -71 55 -71 104 0 14 -9 34 -20
43 -11 10 -20 30 -20 45 0 16 -12 40 -27 58 -16 17 -37 41 -48 54 -25 28 -45
83 -45 124 0 24 -4 32 -18 32 -22 0 -42 19 -42 40 0 8 -9 21 -20 28 -11 7 -20
19 -20 27 0 8 -7 15 -15 15 -17 0 -35 38 -35 75 0 16 -7 25 -25 29 -14 4 -25
13 -25 22 0 22 -39 94 -51 94 -6 0 -8 4 -4 9 5 10 -17 37 -35 43 -6 2 -12 10
-13 18 -2 8 -7 21 -11 29 -7 10 -5 12 3 6 10 -5 9 -2 0 13 -7 12 -16 19 -19
17 -3 -2 -7 11 -8 28 -1 18 -11 39 -22 49 -11 9 -20 22 -20 30 0 7 -9 19 -20
26 -11 7 -20 19 -20 27 0 8 -9 24 -20 35 -11 11 -20 27 -20 35 0 24 -41 98
-61 113 -10 7 -30 33 -45 57 -14 25 -30 43 -34 40 -9 -6 -30 56 -30 87 0 26
-33 78 -50 78 -9 1 -30 33 -50 75 -19 41 -40 77 -47 79 -7 3 -15 22 -19 43 -7
40 -43 117 -44 95 0 -7 -5 -10 -10 -7 -6 4 -8 10 -5 15 3 4 -2 13 -10 20 -8 7
-13 16 -10 20 3 4 -2 13 -10 20 -8 7 -15 19 -15 26 0 8 -4 14 -10 14 -5 0 -10
7 -10 15 0 8 -4 15 -10 15 -5 0 -10 8 -10 18 0 10 -4 22 -9 27 -12 13 -41 112
-34 118 3 3 -4 3 -16 0 -12 -3 -21 -1 -21 5 0 6 -11 28 -25 48 -14 20 -22 40
-20 44 3 5 -3 11 -13 14 -11 4 -24 24 -31 48 -7 23 -22 49 -34 59 -12 10 -18
18 -14 19 5 0 1 7 -7 16 -9 8 -16 24 -16 35 0 10 -5 18 -12 16 -6 -1 -16 12
-22 28 -6 17 -13 32 -16 35 -3 3 -6 18 -7 33 -2 26 -38 88 -55 95 -4 2 -8 10
-8 18 0 8 -7 14 -16 14 -8 0 -12 5 -9 10 3 5 2 10 -2 10 -9 0 -12 5 -52 84
-13 25 -27 46 -32 46 -5 0 -9 6 -9 14 0 7 -7 31 -16 52 -9 22 -16 40 -15 42 5
7 -34 60 -41 56 -4 -3 -8 2 -8 11 0 9 -4 13 -10 10 -5 -3 -10 0 -10 8 0 8 -6
20 -14 26 -7 6 -16 34 -20 61 -8 58 -33 105 -76 140 -16 14 -30 29 -30 33 0 5
-7 15 -15 24 -9 8 -14 27 -12 41 4 27 -19 62 -39 62 -16 0 -24 24 -24 75 0 36
-4 47 -22 57 -13 7 -27 11 -31 10 -4 -1 -10 6 -14 15 -4 10 -18 33 -31 50 -14
19 -22 41 -19 52 3 13 -3 23 -19 32 -13 7 -24 20 -24 28 0 9 -7 27 -16 39 -8
12 -13 22 -10 22 3 0 -6 11 -19 25 -14 13 -25 33 -25 45 0 11 -4 20 -10 20
-12 0 -40 53 -40 75 0 27 -32 86 -49 93 -20 7 -56 48 -71 81 -7 14 -16 34 -21
43 -5 10 -9 23 -9 29 0 7 -8 18 -17 25 -10 7 -18 16 -18 21 0 20 -60 123 -71
123 -8 0 -16 12 -20 28 -14 59 -58 139 -101 180 -24 23 -41 47 -38 52 3 6 2
10 -4 10 -11 0 -23 46 -27 100 -1 19 -2 39 -3 44 -1 4 -8 6 -16 2 -9 -3 -15 0
-15 9 0 8 -4 15 -10 15 -5 0 -10 12 -10 26 0 14 -4 23 -10 19 -5 -3 -10 1 -10
9 0 8 -7 19 -16 24 -9 5 -15 12 -15 15 1 4 -6 15 -14 25 -62 70 -66 77 -63
107 1 16 7 33 13 37 6 5 5 8 -2 8 -7 0 -13 6 -13 14 0 8 -11 28 -25 44 -14 17
-25 33 -25 36 0 7 -13 24 -47 61 -13 13 -23 31 -23 40 0 9 -7 18 -15 22 -12 4
-15 18 -14 53 3 55 -23 99 -59 100 -14 0 -26 9 -32 24 -5 13 -12 25 -17 27
-16 8 -53 101 -53 137 -1 45 -15 65 -55 79 -17 5 -31 18 -33 29 -2 10 -9 24
-15 29 -18 15 -37 63 -37 92 0 17 -13 39 -40 65 -23 21 -38 38 -34 38 3 0 -4
9 -17 20 -13 10 -20 19 -15 20 5 0 -2 9 -15 21 -13 11 -25 28 -25 37 -2 19 -9
62 -19 109 -4 18 -12 30 -17 27 -15 -10 -58 5 -58 21 0 8 -10 25 -22 39 -13
13 -28 30 -34 38 -11 14 -26 112 -25 159 1 15 -6 32 -14 39 -8 7 -15 10 -15 7
0 -11 -45 10 -46 22 -1 6 -2 15 -3 19 -2 18 -41 55 -41 41 -1 -25 -21 19 -24
53 -7 61 -34 119 -58 126 -10 2 -15 8 -12 13 3 5 -2 9 -10 9 -8 0 -28 12 -43
26 -22 20 -28 35 -29 67 -1 43 -21 106 -39 120 -5 4 -18 5 -27 3 -11 -2 -15 2
-13 13 2 9 -10 36 -26 59 -16 24 -31 51 -32 61 -2 10 -10 29 -19 43 -9 14 -24
42 -32 63 -12 29 -20 36 -35 32 -15 -4 -24 3 -35 28 -9 18 -16 40 -16 49 0 9
-4 25 -10 36 -5 11 -14 29 -20 40 -5 11 -10 32 -10 47 0 23 -2 25 -11 13 -9
-12 -10 -11 -6 8 3 12 1 20 -3 17 -4 -3 -17 11 -29 30 -11 20 -27 38 -36 41
-23 9 -52 64 -65 126 -7 32 -16 55 -21 53 -11 -7 -40 6 -34 15 3 5 1 11 -4 14
-26 17 -91 128 -91 158 0 50 -21 98 -43 98 -13 0 -17 5 -14 15 4 8 1 17 -5 21
-7 4 -8 3 -4 -4 4 -7 2 -12 -3 -12 -6 0 -11 5 -11 10 0 6 -11 22 -26 36 -33
34 -64 114 -64 168 0 41 -2 44 -45 66 -61 31 -74 49 -84 112 -12 69 -45 125
-85 142 -26 11 -34 23 -49 72 -10 32 -26 67 -35 78 -9 11 -12 16 -6 13 16 -9
25 28 11 42 -18 18 -28 12 -17 -9 7 -14 7 -20 0 -20 -9 0 -15 22 -11 44 3 13
-30 46 -45 46 -7 0 -21 16 -30 35 -9 19 -21 35 -28 35 -6 0 -4 5 4 10 8 5 10
10 4 10 -7 0 -22 26 -35 58 -13 31 -39 73 -59 92 -31 31 -73 86 -75 100 -7 38
-33 95 -56 121 -16 19 -29 42 -29 52 0 9 -3 17 -8 17 -4 0 -13 9 -20 21 -10
16 -10 19 -1 13 7 -4 5 3 -4 17 -9 13 -17 33 -17 45 0 34 -10 53 -25 48 -10
-4 -16 6 -21 31 -4 25 -9 33 -15 24 -6 -11 -13 -9 -30 10 -12 13 -23 31 -24
40 -4 31 -17 61 -26 61 -5 0 -9 7 -9 15 0 8 -4 15 -9 15 -10 0 -41 85 -44 119
-1 16 -8 21 -29 21 -15 0 -28 3 -29 8 -8 75 -32 142 -51 142 -18 0 -48 66 -48
106 0 39 -22 75 -37 61 -10 -11 -33 14 -33 35 0 12 -4 17 -12 12 -8 -5 -9 0
-5 15 4 15 0 24 -11 28 -31 11 -52 36 -47 54 4 10 0 29 -7 41 -7 13 -13 32
-13 44 -1 21 -35 65 -35 45 0 -6 -6 -10 -12 -8 -18 3 -58 68 -58 93 0 12 -7
24 -15 28 -10 4 -15 20 -15 50 0 36 -5 48 -26 65 -14 11 -34 23 -45 26 -10 4
-19 13 -19 21 0 8 -4 14 -8 14 -14 0 -34 52 -42 113 -10 71 -43 123 -82 131
-16 3 -27 9 -26 13 2 10 -20 89 -36 128 -7 17 -12 38 -10 47 1 10 -3 16 -9 15
-7 -1 -11 3 -10 8 1 6 -8 11 -20 10 -12 0 -24 5 -25 10 -7 18 -37 70 -49 83
-7 7 -15 24 -18 38 -3 13 -7 36 -10 50 -4 16 -11 24 -19 21 -7 -3 -17 -2 -22
1 -15 11 -69 85 -67 91 5 12 -9 41 -19 41 -6 0 -8 3 -5 7 4 3 -2 20 -12 37
-10 17 -22 45 -26 63 -3 18 -14 35 -25 38 -12 4 -21 20 -25 46 -4 22 -13 43
-21 46 -8 3 -14 16 -14 29 0 13 -4 24 -10 24 -16 0 -58 72 -65 112 -4 21 -11
35 -16 33 -11 -7 -35 32 -43 70 -4 19 -18 36 -38 48 -17 10 -28 20 -24 24 3 4
-1 18 -11 32 -9 14 -22 44 -29 66 -6 22 -17 39 -23 37 -10 -2 -13 4 -15 37 -1
8 -10 19 -21 25 -29 17 -53 48 -60 79 -4 15 -11 27 -16 27 -6 0 -17 16 -25 35
-8 20 -20 38 -27 41 -7 2 -14 19 -15 36 -1 17 -11 39 -22 48 -11 10 -20 25
-20 34 0 9 -6 19 -14 22 -8 3 -18 20 -22 37 -3 18 -9 34 -13 37 -11 9 -31 50
-31 65 0 8 -8 19 -19 24 -10 6 -24 24 -31 41 -7 16 -16 30 -21 30 -5 0 -8 3
-8 8 3 18 -2 33 -9 28 -18 -11 -65 87 -71 148 -1 4 -8 5 -17 2 -10 -4 -18 3
-26 24 -5 17 -14 30 -18 30 -12 0 -47 73 -44 93 1 9 -2 17 -7 17 -5 0 -9 9 -9
20 0 11 -7 23 -15 26 -8 4 -15 13 -15 21 0 7 -11 24 -24 36 -13 12 -26 32 -30
45 -5 13 -12 20 -19 16 -7 -4 -9 -4 -5 1 8 8 -15 60 -39 87 -8 9 -17 34 -19
55 -4 48 -53 153 -71 153 -8 0 -16 7 -19 15 -4 8 -10 12 -15 9 -5 -3 -10 7
-10 23 -2 53 -15 93 -30 93 -6 0 -22 25 -36 56 -14 30 -31 58 -39 61 -8 3 -11
9 -8 14 3 5 1 9 -4 9 -6 0 -15 12 -21 28 -13 32 -46 91 -59 104 -5 5 -7 30 -4
54 5 43 4 45 -20 40 -22 -4 -29 2 -47 39 -12 23 -28 48 -36 55 -8 7 -15 18
-15 25 0 7 -7 18 -15 25 -9 7 -15 29 -15 52 0 55 -34 118 -60 113 -13 -3 -23
2 -27 13 -4 9 -12 21 -20 25 -7 4 -13 19 -13 32 0 13 -4 26 -9 29 -5 4 -21 36
-35 74 -15 37 -34 76 -43 87 l-16 20 7 -20 6 -20 -16 20 c-9 11 -25 38 -35 60
-10 22 -19 36 -19 30 0 -5 -5 -3 -10 5 -5 8 -10 35 -10 60 0 25 -5 52 -10 60
-5 8 -10 11 -10 6 0 -5 -7 -3 -15 4 -8 7 -15 9 -15 6 0 -17 -26 20 -28 38 0
11 -8 26 -17 32 -8 6 -15 17 -15 23 0 7 -5 9 -12 5 -7 -4 -10 -4 -6 1 4 4 2
17 -4 28 -6 11 -11 37 -12 56 0 20 -5 42 -9 49 -5 6 -6 12 -2 12 3 0 -1 14
-10 30 -9 17 -22 30 -30 30 -12 0 -15 -16 -16 -77z m195 -4868 c3 -8 1 -15 -4
-15 -6 0 -10 7 -10 15 0 8 2 15 4 15 2 0 6 -7 10 -15z m8356 -11922 c0 -7 -39
17 -46 28 -3 6 5 3 20 -6 14 -10 26 -19 26 -22z"/>
<path d="M18650 32018 c-1 -5 -4 -12 -5 -18 -1 -5 -3 -11 -5 -12 -1 -2 -4 -19
-6 -38 -3 -19 -12 -49 -20 -67 -8 -17 -15 -43 -16 -57 -1 -14 -7 -26 -13 -26
-5 0 -4 -4 3 -9 10 -6 6 -13 -15 -27 -15 -10 -31 -18 -35 -16 -4 1 -5 -4 -2
-11 2 -7 -9 -23 -25 -34 -19 -15 -31 -34 -35 -60 -4 -21 -18 -59 -32 -85 -13
-27 -23 -51 -22 -54 2 -4 -7 -10 -19 -15 -13 -5 -23 -6 -23 -2 0 3 -6 0 -14
-6 -8 -7 -14 -27 -14 -45 0 -52 -36 -156 -54 -156 -4 0 -8 -6 -8 -12 0 -7 -20
-33 -45 -57 -24 -24 -42 -48 -39 -52 3 -5 1 -9 -3 -9 -5 0 -10 -14 -11 -32 -2
-18 -12 -42 -23 -54 -12 -13 -17 -27 -13 -39 5 -11 2 -22 -8 -29 -18 -13 -43
-58 -40 -69 1 -5 -2 -6 -8 -2 -5 3 -10 1 -10 -4 0 -6 -5 -10 -12 -8 -6 1 -17
-9 -24 -23 -41 -80 -59 -128 -58 -152 1 -29 -24 -47 -37 -26 -6 9 -8 6 -7 -7
1 -32 -6 -48 -30 -68 -12 -10 -19 -23 -16 -29 4 -7 2 -8 -4 -4 -8 4 -16 -4
-22 -21 -6 -15 -13 -35 -17 -43 -3 -8 -7 -18 -7 -22 -1 -3 -4 -10 -8 -14 -5
-4 -8 -25 -8 -46 0 -33 -5 -41 -31 -56 -17 -9 -41 -25 -53 -34 l-21 -17 22 4
c20 3 21 2 10 -16 -13 -21 -27 -25 -27 -7 0 6 -7 3 -15 -8 -8 -10 -15 -32 -15
-47 0 -15 -6 -30 -14 -33 -9 -3 -12 -12 -9 -21 5 -12 3 -14 -6 -8 -10 6 -11 2
-6 -15 4 -13 2 -40 -5 -60 -10 -31 -16 -36 -36 -32 -15 3 -24 0 -24 -8 0 -7
-8 -19 -17 -27 -10 -8 -12 -11 -4 -8 9 5 8 -1 -4 -19 -10 -14 -22 -26 -27 -26
-6 0 -6 -5 1 -14 9 -11 8 -15 -4 -20 -9 -3 -14 -10 -10 -15 3 -5 -3 -16 -13
-23 -11 -7 -18 -21 -16 -31 4 -28 -16 -77 -32 -77 -8 0 -14 -4 -14 -8 0 -5
-11 -15 -25 -22 -13 -7 -22 -17 -19 -22 3 -4 1 -8 -3 -8 -14 0 -36 -62 -37
-102 -1 -32 -16 -70 -16 -39 0 7 -4 9 -10 6 -5 -3 -10 -20 -10 -37 0 -21 -6
-31 -20 -35 -18 -5 -24 -22 -23 -69 0 -6 -7 -10 -16 -8 -35 8 -74 -46 -60 -83
7 -19 4 -29 -16 -51 -14 -15 -25 -32 -25 -38 0 -6 -14 -10 -31 -9 -25 2 -32
-3 -40 -24 -5 -14 -12 -33 -16 -41 -3 -8 -7 -17 -8 -20 -3 -9 -26 -63 -43
-100 -9 -19 -23 -44 -32 -54 -11 -15 -11 -17 -1 -11 10 5 12 4 7 -3 -4 -7 -14
-12 -22 -12 -8 0 -14 -4 -14 -9 0 -16 -46 -61 -54 -54 -4 4 -4 0 0 -10 3 -9 9
-15 14 -12 15 9 -4 -51 -20 -62 -10 -7 -20 -26 -23 -43 -4 -17 -13 -30 -21
-30 -8 0 -18 -5 -22 -12 -5 -7 -3 -8 6 -3 10 6 11 4 4 -6 -5 -8 -9 -17 -10
-21 -1 -5 -2 -11 -3 -15 -1 -5 -6 -1 -11 7 -7 12 -11 8 -16 -18 -4 -18 -19
-42 -35 -55 -23 -18 -29 -31 -32 -74 -4 -48 -23 -91 -35 -78 -9 9 -32 -17 -33
-39 -1 -17 -2 -17 -6 -3 -5 20 -19 22 -29 5 -5 -7 -3 -8 7 -3 8 5 1 -8 -15
-29 -15 -21 -29 -48 -30 -62 0 -13 -3 -24 -6 -24 -10 0 -39 -56 -44 -86 -3
-17 -21 -43 -43 -62 -21 -18 -38 -41 -39 -51 -2 -28 -25 -91 -33 -91 -5 0 -14
-20 -21 -45 -7 -24 -19 -50 -26 -56 -8 -6 -11 -15 -8 -20 3 -5 -8 -12 -25 -15
-28 -6 -37 -19 -32 -47 1 -5 -3 -6 -9 -2 -5 3 -10 0 -11 -7 -3 -53 -32 -126
-54 -134 -8 -3 -15 -12 -15 -19 0 -7 -6 -16 -12 -18 -10 -4 -10 -6 0 -6 6 -1
11 -11 11 -23 -1 -17 -2 -19 -6 -5 -7 27 -18 21 -42 -25 -74 -140 -71 -133
-71 -166 0 -38 -17 -52 -62 -52 -37 0 -37 0 -32 -37 3 -27 -2 -45 -20 -72 -13
-20 -27 -54 -31 -76 -5 -30 -14 -45 -37 -60 -45 -29 -87 -85 -91 -121 -2 -17
-7 -36 -10 -41 -4 -6 -9 -28 -13 -49 -3 -22 -17 -51 -31 -66 -14 -14 -22 -31
-19 -37 5 -7 -2 -11 -17 -11 -38 0 -69 -45 -82 -122 -8 -43 -22 -66 -44 -73
-18 -5 -30 -26 -35 -61 -1 -7 -5 -16 -9 -19 -4 -3 -5 -2 -2 2 3 3 -1 13 -8 21
-10 13 -9 14 2 7 10 -5 12 -4 7 3 -4 7 -11 12 -16 12 -12 0 -33 -61 -31 -91 1
-15 -5 -44 -14 -65 -9 -21 -15 -48 -14 -59 2 -36 -1 -41 -27 -40 -28 0 -41
-18 -109 -147 -19 -36 -39 -69 -45 -73 -6 -3 -8 -16 -6 -28 4 -25 -23 -86 -39
-87 -5 0 -10 -6 -10 -12 -1 -7 -6 -12 -13 -11 -7 2 -11 -1 -9 -6 1 -5 -6 -16
-15 -23 -10 -7 -19 -26 -20 -43 -2 -28 -37 -102 -38 -80 -1 6 -12 -11 -25 -37
-14 -25 -34 -49 -45 -53 -11 -3 -20 -11 -20 -16 0 -6 -4 -8 -10 -4 -5 3 -15
-14 -21 -37 -16 -55 -14 -46 -23 -96 -4 -23 -16 -48 -27 -55 -10 -8 -16 -17
-13 -20 4 -4 1 -13 -6 -22 -9 -11 -16 -12 -25 -5 -10 8 -15 5 -21 -12 -8 -24
-11 -33 -13 -46 0 -5 -12 -22 -26 -38 -14 -16 -28 -40 -31 -54 -8 -39 -23 -70
-31 -68 -12 4 -63 -51 -73 -78 -5 -12 -7 -32 -5 -43 2 -13 -3 -25 -15 -31 -12
-6 -16 -17 -13 -29 3 -11 -4 -35 -16 -54 -11 -19 -19 -36 -16 -39 3 -2 -2 -5
-10 -6 -8 -1 -22 -3 -31 -4 -9 -1 -21 -12 -27 -25 -5 -12 -13 -23 -17 -23 -10
0 -21 -36 -26 -78 -3 -34 -53 -132 -67 -132 -5 0 -15 -6 -23 -14 -7 -8 -18
-16 -24 -18 -14 -4 -33 -72 -33 -121 -1 -32 -4 -37 -19 -34 -10 3 -18 1 -18
-4 0 -5 5 -9 10 -9 6 0 4 -12 -4 -29 -9 -16 -12 -32 -8 -36 4 -3 2 -6 -3 -4
-6 1 -22 -1 -37 -5 -29 -9 -78 -91 -78 -132 0 -12 -8 -32 -19 -45 -10 -13 -16
-30 -14 -36 3 -7 -2 -16 -11 -19 -9 -3 -14 -9 -11 -14 2 -4 -6 -5 -19 -3 -19
4 -24 0 -29 -27 -4 -18 -11 -29 -17 -25 -16 10 -28 -31 -29 -102 -1 -37 -5
-45 -32 -58 -17 -9 -29 -19 -26 -21 8 -8 -56 -74 -71 -74 -10 0 -12 -8 -7 -28
4 -20 0 -35 -15 -52 -11 -13 -26 -43 -32 -67 -7 -30 -23 -55 -52 -81 -28 -25
-46 -52 -55 -82 -7 -24 -20 -50 -29 -56 -9 -6 -17 -25 -18 -40 -3 -56 -6 -69
-11 -56 -7 17 -23 15 -23 -3 0 -8 -6 -15 -13 -15 -8 0 -26 -10 -41 -23 -22
-19 -27 -34 -33 -90 -4 -50 -9 -67 -19 -63 -8 3 -15 -7 -20 -27 -7 -34 -61
-107 -78 -107 -16 0 -37 -38 -41 -74 -10 -97 -31 -138 -68 -128 -17 4 -19 2
-14 -18 7 -26 -20 -80 -39 -80 -7 0 -19 -21 -28 -46 -8 -26 -25 -55 -37 -65
-12 -10 -21 -29 -21 -42 0 -23 -18 -35 -74 -51 -17 -5 -22 -17 -27 -61 -3 -31
-15 -71 -26 -89 -12 -19 -20 -44 -19 -57 2 -16 -4 -27 -19 -34 -13 -5 -23 -13
-23 -17 0 -5 -6 -8 -13 -8 -18 0 -54 -43 -51 -62 2 -17 -24 -77 -45 -102 -9
-11 -10 -16 -2 -16 19 0 -7 -40 -58 -88 -25 -24 -40 -41 -32 -36 10 5 12 3 5
-7 -5 -8 -7 -22 -6 -31 2 -10 -3 -18 -11 -18 -8 0 -18 -7 -21 -16 -9 -23 -7
-36 3 -29 6 3 8 -6 5 -22 -6 -33 -45 -69 -84 -78 -40 -9 -47 -21 -54 -94 -4
-35 -11 -72 -16 -81 -5 -10 -6 -20 -3 -24 3 -3 1 -6 -5 -6 -11 0 -48 -59 -45
-71 1 -3 -8 -12 -21 -18 -29 -16 -56 -62 -56 -96 0 -18 -6 -29 -20 -32 -16 -4
-20 -14 -20 -44 0 -45 -36 -104 -79 -130 -32 -19 -52 -76 -31 -89 8 -5 7 -9
-6 -14 -9 -3 -14 -9 -10 -13 3 -3 -1 -17 -9 -29 -8 -13 -12 -31 -8 -40 5 -13
3 -15 -7 -9 -10 6 -12 4 -7 -9 4 -10 3 -15 -3 -11 -6 3 -10 2 -10 -3 0 -14
-47 -62 -54 -55 -3 4 -6 2 -6 -4 0 -6 -10 -21 -23 -34 -13 -13 -34 -50 -46
-82 -13 -31 -27 -60 -32 -63 -4 -2 -4 -16 1 -29 10 -25 -1 -42 -20 -30 -5 3
-10 -3 -10 -14 0 -28 -10 -51 -24 -51 -6 -1 -20 -15 -32 -33 -11 -18 -26 -31
-32 -30 -7 2 -8 -7 -2 -26 8 -30 -13 -91 -32 -91 -12 0 -88 -81 -88 -94 0 -5
-3 -6 -6 -3 -4 4 -1 13 6 22 11 13 10 14 -4 9 -9 -3 -16 -14 -17 -23 0 -9 -2
-23 -4 -31 -1 -8 -5 -28 -8 -45 -15 -78 -27 -108 -27 -69 -1 16 -20 -24 -37
-78 -3 -10 -12 -18 -20 -18 -8 0 -11 5 -7 11 4 7 -2 9 -17 7 -16 -2 -24 -10
-25 -23 0 -11 -3 -27 -7 -35 -5 -13 -15 -83 -16 -117 -1 -7 -7 -10 -15 -7 -8
3 -16 -4 -21 -18 -4 -13 -8 -26 -10 -30 -1 -5 -3 -15 -4 -24 0 -8 -5 -12 -11
-9 -5 3 -10 1 -10 -4 0 -6 -9 -11 -20 -11 -10 0 -24 -9 -30 -20 -6 -11 -8 -20
-5 -20 3 0 -4 -17 -15 -37 -11 -21 -20 -47 -20 -59 0 -12 -7 -27 -15 -34 -8
-7 -15 -22 -15 -34 0 -26 -10 -41 -32 -49 -10 -3 -18 -12 -18 -20 0 -7 -14
-21 -30 -31 -26 -15 -31 -23 -30 -54 1 -20 -1 -46 -4 -57 -2 -11 -5 -25 -5
-32 -1 -6 -18 -24 -40 -40 -39 -27 -39 -28 -18 -45 11 -10 15 -18 8 -18 -7 0
-10 -4 -7 -9 4 -5 -12 -18 -34 -28 -22 -10 -40 -22 -40 -28 0 -5 -6 -22 -14
-37 -8 -15 -17 -42 -21 -60 -13 -63 -17 -69 -72 -93 -30 -14 -52 -29 -48 -34
3 -6 -1 -24 -10 -40 -8 -17 -17 -50 -19 -73 -2 -24 -4 -46 -5 -50 -1 -5 -7 -7
-13 -5 -7 1 -12 -6 -12 -15 1 -10 -2 -16 -6 -13 -5 3 -11 -8 -15 -24 -6 -29
-65 -91 -86 -91 -6 0 -7 -4 -4 -10 3 -5 1 -10 -4 -10 -6 0 -11 -19 -11 -43 0
-24 -5 -48 -11 -54 -6 -6 -11 -17 -12 -25 -3 -16 -88 -128 -99 -128 -4 0 -16
-21 -27 -46 -15 -33 -18 -51 -11 -64 8 -15 5 -20 -20 -29 -17 -5 -30 -16 -30
-23 0 -10 -3 -9 -9 1 -11 17 -8 22 -60 -114 -16 -44 -32 -91 -35 -105 -3 -14
-19 -33 -35 -43 -19 -11 -28 -23 -24 -32 3 -10 -1 -15 -12 -15 -9 0 -14 -4
-11 -9 3 -4 -15 -38 -39 -75 -25 -36 -42 -66 -38 -66 4 0 2 -5 -5 -12 -7 -7
-12 -20 -12 -30 0 -11 -5 -15 -15 -12 -8 4 -16 1 -16 -5 -2 -15 -4 -23 -14
-45 -5 -12 -3 -27 5 -40 12 -19 12 -20 -3 -8 -29 24 -63 -25 -81 -119 -6 -27
-39 -71 -53 -70 -23 2 -43 -13 -45 -32 0 -12 -1 -29 -2 -37 -1 -8 -8 -16 -17
-18 -10 -2 -19 -16 -22 -35 -20 -119 -31 -141 -76 -150 -25 -5 -32 -14 -47
-59 -9 -29 -20 -55 -24 -58 -13 -9 -27 -44 -40 -97 -11 -49 -18 -57 -46 -54
-15 2 -41 -30 -46 -54 -1 -10 -11 -27 -20 -36 -10 -10 -14 -26 -11 -38 3 -12
-6 -39 -21 -66 -25 -42 -36 -50 -61 -45 -5 1 -7 -2 -3 -6 5 -4 -1 -14 -13 -22
-22 -16 -73 -118 -65 -131 3 -5 -8 -25 -24 -46 -16 -21 -27 -41 -24 -46 3 -5
2 -9 -3 -8 -4 1 -11 0 -15 -1 -12 -4 -27 -7 -37 -9 -5 0 -12 -13 -16 -28 -3
-15 -14 -43 -22 -62 -18 -40 -24 -71 -13 -71 4 0 6 -10 4 -22 -1 -13 -3 -28
-3 -33 -2 -20 -67 -78 -92 -82 -39 -6 -47 -24 -51 -108 -3 -77 -4 -80 -35
-100 -17 -11 -36 -30 -42 -43 -7 -14 -16 -20 -23 -16 -8 5 -9 2 -5 -9 3 -9 3
-16 -1 -16 -19 3 -28 -3 -29 -18 -2 -43 -29 -103 -44 -103 -4 0 -12 -14 -19
-30 -12 -29 -60 -65 -74 -55 -3 3 -4 2 -1 -2 3 -3 -2 -11 -10 -17 -8 -6 -17
-36 -21 -66 -3 -30 -10 -63 -15 -72 -5 -9 -9 -30 -9 -47 0 -21 -6 -32 -20 -36
-11 -3 -27 -19 -37 -36 -9 -16 -25 -29 -35 -29 -23 0 -37 -36 -43 -105 -5 -73
-43 -143 -60 -115 -4 7 -25 -9 -50 -36 -34 -36 -46 -58 -51 -93 -3 -25 -15
-60 -25 -77 -11 -17 -19 -39 -19 -49 0 -9 -8 -19 -17 -22 -23 -6 -93 -106 -93
-132 0 -34 -19 -71 -52 -102 -18 -16 -27 -29 -20 -29 6 0 12 -5 12 -11 0 -6
-7 -9 -15 -6 -8 4 -17 1 -21 -5 -5 -7 -2 -8 7 -3 14 8 10 3 -40 -52 -11 -12
-18 -31 -16 -42 2 -11 -3 -25 -10 -31 -7 -6 -12 -19 -10 -28 2 -9 4 -21 5 -27
6 -26 -1 -36 -20 -30 -15 5 -22 0 -30 -19 -5 -14 -16 -26 -25 -26 -8 0 -15 -4
-15 -9 0 -5 -9 -13 -20 -16 -11 -3 -22 -16 -25 -28 -16 -73 -11 -109 18 -113
10 -1 15 2 11 7 -3 5 0 9 5 9 6 0 11 6 11 13 0 22 41 49 76 49 19 0 34 4 34 8
0 5 10 12 21 15 12 4 40 26 63 49 22 23 53 47 69 54 15 6 27 16 27 22 0 5 14
10 30 10 21 0 30 5 30 16 0 8 4 13 9 9 5 -3 12 -1 16 5 3 5 17 10 31 10 14 0
22 4 19 10 -3 6 1 10 10 10 21 0 42 21 40 40 -2 10 17 24 49 39 28 13 59 28
69 32 11 6 17 5 17 -2 0 -7 9 0 21 15 12 15 26 23 32 19 7 -4 5 2 -3 12 -8 10
-10 16 -4 12 7 -4 15 0 18 9 4 10 12 14 22 10 14 -5 15 -4 4 9 -12 15 -4 21
24 16 4 -1 13 2 20 7 6 5 19 8 29 7 9 -2 17 1 17 6 0 5 11 9 24 9 13 0 29 7
36 15 7 8 16 13 20 10 5 -3 15 1 23 9 8 8 17 12 20 9 4 -3 5 4 2 16 -2 11 0
21 6 21 5 0 9 -6 9 -12 0 -7 6 -4 12 7 6 11 17 24 25 28 7 4 13 15 13 22 0 8
10 16 23 17 46 3 89 16 98 30 3 5 16 10 27 11 12 1 22 8 22 17 0 12 2 12 9 1
5 -8 16 -11 30 -6 12 3 18 11 15 16 -3 6 3 19 15 30 12 11 19 24 16 30 -4 5
-1 9 4 9 6 0 11 -6 12 -12 0 -7 4 -3 9 8 7 17 21 24 59 29 27 4 55 13 62 21 6
8 17 14 25 14 7 0 16 5 20 12 5 7 3 8 -7 3 -8 -5 -6 1 5 13 10 12 23 19 27 16
5 -3 9 0 9 5 0 6 3 10 8 9 13 -3 65 26 88 49 13 13 50 30 83 39 52 15 61 21
66 46 4 15 11 28 16 28 6 0 8 4 5 9 -4 5 2 8 11 7 10 -2 32 8 49 20 17 13 34
21 37 17 4 -3 7 0 7 7 0 7 3 10 7 7 3 -4 11 -2 18 3 6 5 20 11 31 13 35 7 59
20 87 49 15 15 27 23 27 17 0 -7 10 1 22 17 39 51 56 60 116 66 6 1 12 5 12 9
0 4 9 11 20 14 13 4 20 15 20 30 0 13 5 27 10 30 6 3 10 1 10 -5 0 -7 7 -5 16
4 8 9 22 16 29 16 8 0 24 10 37 23 13 12 30 22 38 22 8 -1 20 1 25 4 14 8 37
12 58 12 9 0 17 5 17 10 0 6 4 8 9 5 11 -7 23 22 14 36 -3 7 -1 8 5 4 7 -4 12
-3 12 3 0 18 49 63 60 56 6 -4 23 1 38 11 15 10 35 20 45 21 11 2 28 10 40 18
12 8 29 15 39 15 10 0 18 6 18 13 0 7 9 19 20 27 11 8 20 19 20 26 0 11 49 39
63 36 4 -1 7 2 7 7 0 10 45 26 101 35 29 5 38 13 52 45 19 43 32 51 91 57 21
2 44 10 50 17 27 32 45 40 62 27 12 -11 15 -11 12 0 -2 9 6 15 19 16 32 2 55
13 49 23 -9 14 4 41 20 41 8 0 14 5 14 10 0 6 9 10 20 10 10 0 35 14 54 30 21
19 40 28 50 24 9 -3 16 -1 16 6 0 6 4 9 10 5 5 -3 19 0 32 6 13 7 30 15 38 19
8 4 17 16 19 26 5 27 27 40 106 65 39 12 75 28 81 35 6 8 14 11 17 8 3 -4 9 7
13 22 14 60 64 88 179 101 59 6 70 14 95 63 21 42 85 90 119 90 43 0 101 22
101 39 0 14 2 14 10 1 11 -17 12 -14 14 33 1 24 6 31 18 29 9 -1 23 6 30 17
14 20 90 47 122 43 29 -4 65 25 73 59 5 18 20 37 38 47 17 9 32 19 35 22 13
13 99 37 122 35 22 -3 26 1 23 17 -3 15 -1 17 9 9 17 -15 56 18 56 48 0 19 10
26 33 22 4 0 7 3 7 7 0 4 21 14 48 21 51 15 82 36 82 57 0 7 7 20 16 28 8 9
13 16 10 16 -3 0 2 9 11 19 9 11 20 18 25 15 4 -3 8 -1 8 4 0 5 6 9 13 10 26
2 72 14 82 21 5 5 22 11 38 15 16 4 27 13 27 23 0 9 3 14 6 10 3 -3 18 6 34
21 57 56 83 72 110 72 16 0 49 11 74 25 24 14 46 21 49 17 2 -4 2 -2 1 5 -2 7
3 19 11 27 8 7 11 17 7 20 -3 4 1 4 11 0 12 -4 17 -1 17 10 0 9 7 16 15 16 8
0 15 5 15 10 0 6 7 10 16 10 8 0 12 5 9 10 -3 6 5 11 19 11 14 1 29 2 34 3 4
1 26 6 49 10 39 7 42 10 45 44 2 28 7 36 19 34 9 -1 19 4 23 13 3 8 12 15 21
15 8 0 15 5 15 10 0 6 9 10 20 10 11 0 20 4 20 9 0 5 8 11 18 14 24 8 74 39
92 58 8 8 23 18 33 22 9 3 17 11 17 16 0 17 88 63 113 59 24 -3 60 18 53 31
-3 4 5 26 17 50 19 37 30 46 77 63 69 26 78 33 97 79 10 25 19 36 29 32 8 -3
14 1 14 10 0 9 8 13 25 12 14 -2 28 3 32 10 5 7 22 29 40 48 17 19 29 38 26
41 -4 3 1 6 11 6 9 0 14 5 11 10 -3 6 0 10 8 10 7 0 22 8 33 18 10 9 26 17 34
17 23 0 73 51 65 67 -5 7 -5 10 0 6 4 -4 21 7 37 25 17 17 27 26 23 20 -13
-26 9 -11 56 36 27 28 49 55 49 61 0 6 11 15 25 22 13 6 23 14 20 17 -2 4 10
17 26 30 16 13 26 27 23 32 -3 5 -2 9 3 8 16 -4 43 13 43 27 0 8 14 26 30 41
17 14 30 31 30 37 0 6 14 17 31 25 16 7 28 15 25 18 -2 3 17 26 44 52 26 26
49 55 51 66 2 10 9 18 14 17 6 0 21 9 35 21 21 19 23 20 10 2 -14 -20 -14 -20
7 -2 12 11 19 25 16 33 -3 8 6 23 21 35 18 14 25 27 21 39 -3 10 0 22 6 26 8
4 9 3 5 -4 -4 -7 -2 -12 4 -12 6 0 8 -5 4 -12 -4 -7 -3 -8 5 -4 6 4 9 12 6 17
-4 5 5 13 19 19 14 5 26 14 26 20 0 5 3 9 8 9 20 -3 30 4 48 36 10 19 22 35
26 35 5 0 8 10 8 23 0 18 2 19 10 7 8 -12 10 -11 10 7 0 15 8 25 23 28 15 4
29 19 37 41 8 19 17 34 22 34 4 0 8 7 8 15 0 7 6 18 14 22 7 4 18 18 25 31 7
12 16 20 21 17 4 -3 15 1 23 9 8 8 18 12 22 8 4 -4 6 -2 5 3 -3 16 12 55 21
55 5 0 9 6 9 14 0 13 27 31 42 28 3 -1 9 5 12 14 4 10 2 13 -6 8 -7 -4 -8 -3
-4 4 4 7 18 12 31 12 15 0 26 7 30 20 3 11 11 20 16 20 5 0 7 10 4 23 -4 14 1
30 15 44 11 12 20 27 20 33 0 13 30 46 30 33 0 -4 6 -1 13 8 7 8 20 18 29 22
12 4 16 1 13 -13 -2 -13 1 -17 10 -14 8 4 11 14 8 27 -8 37 -5 60 11 69 18 10
48 67 40 79 -3 5 2 9 10 9 8 0 18 9 21 20 3 11 13 20 21 20 8 0 13 5 12 11 -2
6 5 13 15 14 26 5 47 25 47 46 0 10 5 21 10 24 6 3 10 17 10 31 0 14 5 34 10
45 14 25 93 104 111 111 8 3 15 18 17 34 1 15 10 37 21 48 19 22 35 56 33 69
-1 4 8 7 20 7 15 0 19 3 11 8 -9 6 -6 15 13 35 14 15 29 25 34 22 5 -3 12 9
15 27 4 18 12 36 17 39 5 3 14 28 21 55 10 41 16 49 35 48 12 -1 22 2 22 7 0
5 7 5 17 2 11 -4 14 -3 9 5 -4 7 -2 12 5 12 6 0 9 8 6 20 -3 11 -2 18 2 15 9
-5 41 58 41 80 0 8 4 15 9 15 4 0 8 19 8 42 0 23 5 44 12 46 6 2 11 13 11 23
0 11 5 17 10 14 6 -3 10 -1 10 5 0 6 13 16 30 21 34 12 62 61 55 97 -2 12 7
52 20 87 14 36 23 65 20 65 -11 0 44 46 68 57 18 9 27 20 27 36 0 13 3 27 7
30 3 4 8 24 9 44 4 57 21 106 33 99 3 -2 7 10 8 27 3 34 38 77 64 77 23 0 31
14 36 59 2 19 9 41 15 49 7 8 12 45 13 84 0 51 4 73 16 81 8 7 18 20 22 30 3
9 13 17 22 17 8 0 15 5 15 10 0 6 7 10 15 10 8 0 15 5 15 10 0 6 6 9 13 8 8
-2 12 12 12 47 0 35 5 52 15 57 11 5 10 7 -5 7 -17 1 -17 3 -5 11 13 9 13 10
0 10 -12 0 -12 2 -2 8 7 5 17 37 23 73 6 35 17 71 25 80 8 8 14 26 14 38 0 14
7 25 20 28 15 4 20 14 20 40 0 29 25 80 50 103 3 3 6 19 7 35 5 73 15 115 25
109 6 -4 8 -2 4 4 -5 9 4 96 17 152 7 33 38 80 53 80 19 0 31 33 30 81 -1 21
2 35 7 32 5 -3 7 1 6 8 -2 8 2 30 9 49 7 20 12 56 11 80 -2 73 0 88 16 104 9
9 15 21 14 28 -1 7 -1 28 0 46 1 24 5 31 14 26 8 -5 8 -2 -2 9 -11 14 -11 17
0 17 10 0 11 3 3 8 -9 5 -8 17 3 45 13 30 19 36 39 33 19 -4 25 1 34 30 7 19
13 54 15 78 1 24 5 48 8 53 3 5 7 72 8 149 1 77 7 151 12 165 6 13 12 35 14
49 2 14 8 44 14 67 9 34 9 46 -2 59 -15 18 -14 20 4 43 9 12 9 13 0 7 -9 -5
-11 -2 -7 8 3 9 12 12 21 9 11 -4 14 -2 9 5 -4 7 -2 12 4 12 6 0 9 4 6 9 -3 5
1 12 10 15 9 3 14 13 11 21 -4 9 -1 12 7 9 18 -7 24 3 31 57 3 24 8 62 12 84
9 63 10 436 1 441 -5 3 -5 11 -1 17 4 7 8 23 10 37 1 14 5 41 8 60 3 19 8 143
11 275 5 300 11 389 24 393 5 2 8 7 5 12 -3 5 2 15 10 24 8 8 16 26 17 40 1
14 8 28 15 30 7 3 13 17 13 31 0 14 6 25 13 25 8 0 7 4 -3 10 -13 9 -13 10 0
10 13 0 13 1 0 10 -13 9 -13 10 0 10 13 0 13 1 0 10 -13 9 -13 10 0 10 10 0
11 3 4 8 -6 4 -10 20 -9 35 1 15 -2 30 -7 33 -4 3 -5 11 -1 17 12 19 12 36 1
43 -5 3 -2 14 8 25 9 10 14 19 9 19 -4 0 -1 8 6 18 13 15 12 16 -3 3 -10 -7
-15 -18 -11 -25 3 -6 2 -7 -2 -3 -10 9 -15 187 -6 202 3 6 6 33 6 62 1 29 4
55 8 59 4 4 6 -22 4 -59 -3 -62 2 -79 11 -39 2 9 5 235 7 502 2 267 6 535 10
595 6 106 6 381 2 688 -2 82 1 151 5 153 5 3 6 10 3 15 -4 5 -2 9 2 9 11 0 12
39 11 335 0 132 0 254 1 272 0 18 -4 35 -9 38 -6 4 -8 10 -6 14 3 4 8 41 12
82 3 40 12 85 19 99 7 14 13 39 13 55 1 41 5 59 17 67 16 12 12 102 -5 110
-10 4 -7 7 10 7 20 1 22 3 10 11 -8 5 -11 10 -6 10 4 0 -2 9 -15 20 -13 10
-19 19 -12 20 6 0 9 10 7 23 -4 20 -4 20 4 2 5 -11 7 -26 5 -32 -3 -7 0 -13 5
-13 6 0 9 9 7 21 -5 27 -6 190 -1 246 2 24 0 41 -5 38 -4 -3 -5 -13 -2 -23 3
-9 2 -14 -2 -9 -11 9 -14 108 -4 101 4 -2 6 -13 4 -24 -2 -11 0 -22 4 -24 4
-3 6 16 6 42 -1 32 -5 46 -14 44 -7 -1 -10 2 -6 8 3 6 11 8 16 5 5 -4 9 2 10
12 2 50 17 78 42 78 6 0 15 18 18 39 4 22 7 341 9 710 3 1079 3 1334 -5 1345
-3 6 -12 8 -18 4 -7 -4 -5 2 3 12 8 10 10 16 3 12 -7 -4 -13 0 -16 10 -3 10
-6 15 -7 11z m-45 -2727 c3 -5 2 -12 -3 -15 -5 -3 -9 1 -9 9 0 17 3 19 12 6z
m-128 -3470 c0 -11 -5 -18 -9 -15 -4 3 -5 11 -1 19 7 21 12 19 10 -4z m-8104
-8266 c-3 -9 -8 -14 -10 -11 -3 3 -2 9 2 15 9 16 15 13 8 -4z m-1403 -2414 c0
-5 -7 -11 -15 -15 -15 -5 -20 5 -8 17 9 10 23 9 23 -2z"/>
<path d="M18645 29859 c-4 -5 -9 -25 -11 -42 -3 -29 -3 -30 6 -9 6 15 15 21
22 16 10 -6 11 -4 1 7 -16 16 -17 33 -1 23 7 -4 8 -3 4 4 -9 15 -13 15 -21 1z"/>
<path d="M22038 28043 c7 -3 16 -2 19 1 4 3 -2 6 -13 5 -11 0 -14 -3 -6 -6z"/>
<path d="M22510 27286 c0 -2 7 -7 16 -10 8 -3 12 -2 9 4 -6 10 -25 14 -25 6z"/>
<path d="M18505 26232 c-16 -10 -14 -141 2 -135 7 3 11 28 11 74 0 38 -1 69
-2 69 0 0 -6 -4 -11 -8z"/>
<path d="M14066 24025 c-9 -26 -7 -32 5 -12 6 10 9 21 6 23 -2 3 -7 -2 -11
-11z"/>
<path d="M17870 22426 c0 -31 6 -34 13 -6 3 11 1 23 -4 26 -5 3 -9 -6 -9 -20z"/>
<path d="M11423 19408 c-25 -32 -26 -40 -4 -26 12 7 21 18 21 25 0 16 -5 16
-17 1z"/>
<path d="M19207 17573 c6 -17 32 -15 -340 -17 -202 -1 -321 -5 -325 -12 -8
-11 -17 -11 -51 0 -43 15 -91 13 -92 -4 0 -10 -3 -9 -8 4 -7 17 -8 18 -14 3
-5 -12 -12 -15 -29 -9 -13 4 -36 7 -51 6 -15 0 -30 3 -33 8 -9 14 -24 -1 -17
-18 5 -13 8 -13 15 -2 8 11 9 11 6 0 -2 -8 -7 -13 -11 -13 -4 1 -20 -5 -37
-14 -16 -8 -41 -15 -55 -15 -15 0 -34 -4 -43 -9 -10 -5 -87 -12 -172 -14 -165
-6 -180 -7 -180 -16 0 -3 -21 -7 -46 -8 -26 -1 -51 -7 -55 -15 -7 -10 -9 -11
-9 0 0 7 -5 10 -10 7 -6 -4 -7 -12 -3 -18 4 -7 0 -6 -10 2 -12 10 -17 10 -17
2 0 -8 -6 -6 -16 4 -15 15 -18 15 -34 0 -11 -10 -20 -12 -24 -6 -4 5 -15 8
-26 6 -10 -2 -24 2 -29 9 -13 16 -81 6 -108 -15 -32 -25 -42 -37 -37 -42 3 -3
-4 -8 -15 -12 -12 -3 -21 -11 -21 -16 0 -5 -31 -9 -69 -9 -46 0 -74 -5 -83
-14 -10 -9 -45 -14 -113 -15 -54 -1 -102 -4 -107 -7 -5 -3 -30 -6 -55 -6 -26
0 -52 -6 -60 -13 -7 -8 -21 -11 -29 -8 -9 3 -19 0 -24 -6 -6 -11 -24 -17 -53
-20 -5 -1 -6 -5 -3 -9 8 -13 -6 -26 -49 -47 -22 -11 -43 -24 -47 -30 -5 -6 -8
-5 -8 3 0 14 -19 12 -38 -5 -9 -8 -47 -13 -105 -14 -83 0 -108 -3 -157 -14 -8
-2 -19 -4 -23 -4 -5 -1 -5 -7 -1 -13 6 -10 4 -10 -7 0 -18 17 -29 15 -29 -5 0
-9 -3 -13 -7 -10 -3 4 -13 -2 -20 -13 -8 -11 -18 -18 -23 -15 -4 3 -10 -4 -13
-14 -3 -13 -21 -24 -48 -32 -24 -7 -47 -18 -51 -23 -4 -6 -58 -12 -120 -14
-123 -4 -132 -8 -157 -69 -7 -18 -22 -35 -32 -38 -10 -4 -19 -11 -19 -16 0 -5
-18 -9 -40 -9 -22 0 -40 -4 -40 -9 0 -6 -38 -10 -84 -10 -73 1 -89 -3 -118
-23 -18 -12 -36 -27 -40 -33 -5 -7 -8 -7 -8 0 0 7 -3 7 -8 0 -4 -5 -16 -15
-27 -21 -11 -6 -20 -17 -20 -25 0 -9 -20 -18 -56 -25 -31 -6 -62 -15 -70 -19
-7 -5 -38 -14 -68 -20 -42 -8 -56 -15 -55 -28 1 -9 -2 -15 -6 -12 -5 3 -10 0
-12 -7 -2 -6 -15 -13 -28 -15 -13 -2 -27 -7 -30 -12 -3 -4 -17 -11 -32 -15
-16 -3 -28 -13 -28 -20 0 -9 -16 -16 -47 -20 -53 -6 -71 -10 -93 -19 -14 -6
-76 -17 -112 -20 -9 -1 -15 -4 -13 -7 2 -3 -12 -21 -31 -40 -19 -19 -34 -39
-34 -46 0 -14 -23 -24 -55 -24 -13 0 -26 -4 -29 -8 -3 -5 -26 -10 -52 -10 -50
-2 -67 -9 -59 -22 7 -12 -17 -28 -38 -25 -9 2 -15 -1 -12 -5 10 -17 -75 -89
-97 -82 -5 1 -8 -2 -8 -7 0 -6 -9 -8 -20 -6 -11 2 -22 0 -25 -5 -3 -4 -14 -6
-25 -3 -11 3 -20 1 -20 -5 0 -10 -95 -30 -95 -21 0 2 -11 -6 -25 -18 -13 -13
-27 -23 -32 -23 -4 0 -8 -7 -8 -15 0 -8 5 -15 11 -15 5 0 7 -4 4 -10 -3 -5
-22 -10 -41 -10 -20 0 -33 -5 -31 -11 2 -11 -20 -17 -78 -22 -17 -2 -41 -13
-53 -25 -12 -12 -26 -22 -32 -22 -5 0 -10 -12 -10 -26 0 -14 -4 -23 -9 -20 -4
3 -19 -3 -31 -14 -13 -11 -31 -20 -41 -20 -9 0 -19 -5 -21 -12 -2 -6 -36 -15
-75 -19 -71 -8 -113 -24 -113 -45 0 -34 -115 -102 -188 -111 -26 -2 -55 -6
-64 -7 -9 -1 -41 -27 -70 -58 -63 -66 -87 -80 -111 -67 -12 7 -17 6 -17 -1 0
-6 -4 -9 -9 -5 -6 3 -15 -4 -21 -16 -7 -11 -14 -18 -17 -15 -4 3 -22 -11 -42
-31 -20 -21 -40 -38 -46 -38 -5 0 -10 -6 -10 -13 0 -20 -73 -43 -122 -38 -37
3 -44 0 -60 -23 -9 -14 -17 -29 -15 -33 1 -6 -60 -28 -80 -28 -11 0 -53 -43
-53 -55 0 -12 -58 -26 -105 -26 -28 1 -39 -5 -55 -29 -11 -17 -28 -33 -37 -36
-9 -3 -20 -14 -23 -24 -4 -11 -17 -23 -31 -26 -13 -3 -24 -10 -24 -15 0 -5 -3
-8 -7 -7 -20 5 -88 -16 -99 -30 -12 -16 -13 -16 -19 0 -6 15 -9 15 -40 -4 -25
-14 -36 -29 -41 -53 -8 -45 -28 -51 -104 -33 -9 2 -16 -5 -18 -18 -2 -16 -11
-21 -33 -22 -17 0 -41 -8 -54 -16 -14 -9 -35 -16 -48 -16 -17 0 -33 -12 -52
-40 -20 -29 -39 -43 -69 -52 -22 -6 -48 -19 -56 -29 -8 -10 -26 -19 -40 -21
-14 -2 -30 -6 -35 -10 -6 -4 -17 -3 -25 3 -27 16 -39 9 -51 -31 -8 -25 -18
-40 -28 -40 -9 0 -22 -9 -29 -20 -8 -14 -23 -20 -48 -20 -23 0 -41 -6 -49 -17
-9 -11 -30 -18 -70 -20 -67 -3 -74 -7 -57 -33 9 -15 9 -18 -1 -14 -7 2 -22 -4
-32 -16 -10 -11 -29 -20 -42 -20 -13 0 -23 -6 -22 -12 4 -32 -2 -36 -43 -33
-49 3 -88 -14 -132 -58 -17 -17 -22 -24 -11 -16 20 13 20 13 1 -8 -10 -12 -32
-25 -50 -28 -60 -12 -70 -17 -56 -25 9 -6 7 -11 -10 -20 -23 -12 -82 -16 -98
-6 -5 3 -18 -3 -28 -13 -11 -9 -24 -16 -30 -14 -5 2 -18 -12 -27 -32 -11 -23
-25 -36 -44 -40 -15 -4 -36 -10 -45 -16 -10 -5 -24 -9 -32 -9 -7 0 -19 -7 -26
-15 -7 -8 -18 -15 -24 -14 -31 4 -55 -3 -76 -21 -13 -11 -30 -20 -39 -20 -9 0
-25 -11 -35 -25 -10 -13 -22 -22 -27 -19 -5 3 -9 -2 -9 -10 0 -8 -10 -18 -22
-21 -13 -4 -34 -17 -47 -29 -13 -11 -21 -15 -16 -8 6 11 3 12 -13 3 -12 -6
-23 -15 -27 -20 -3 -6 -25 -13 -49 -16 -31 -5 -47 -13 -56 -30 -8 -15 -18 -21
-28 -18 -9 4 -13 2 -9 -4 7 -10 -20 -27 -63 -39 -14 -3 -31 -11 -38 -17 -8 -6
-23 -12 -34 -14 -11 -2 -26 -9 -34 -17 -7 -8 -32 -17 -55 -21 -29 -5 -43 -13
-46 -26 -5 -17 -15 -23 -35 -20 -5 0 -8 -3 -8 -8 0 -18 -31 -41 -55 -41 -13 0
-37 -11 -53 -25 -17 -14 -34 -24 -39 -23 -16 5 -118 -53 -140 -79 -14 -17 -32
-27 -51 -28 -17 -1 -49 -13 -71 -28 -23 -15 -43 -22 -46 -17 -3 6 -18 10 -33
9 l-27 -1 25 -8 c22 -7 22 -8 5 -11 -11 -1 -26 -2 -32 -2 -7 1 -10 -3 -7 -8 3
-5 -3 -9 -12 -9 -10 0 -15 -3 -11 -6 9 -9 -19 -34 -37 -34 -9 0 -16 -4 -16
-10 0 -5 -5 -10 -11 -10 -6 0 -17 -6 -25 -14 -11 -11 -82 -25 -156 -30 -4 -1
-19 -13 -33 -28 -20 -22 -22 -28 -10 -28 9 0 14 -4 11 -8 -3 -5 12 -7 32 -4
20 2 52 3 70 3 38 -1 51 -1 95 -1 346 6 1938 -4 1943 -11 3 -6 10 -6 17 -1 19
14 339 13 330 -1 -4 -8 -1 -7 9 1 19 15 274 16 284 1 3 -6 10 -6 17 -1 16 13
1415 13 1423 1 4 -6 10 -6 17 -1 17 14 13128 12 13120 -1 -4 -6 -1 -7 8 -1 20
12 1400 15 1415 3 7 -6 15 -6 18 -1 7 11 1076 10 1093 -1 6 -4 14 -4 17 1 3 5
64 8 135 8 79 -1 133 3 135 9 3 6 5 4 5 -4 1 -10 4 -11 15 -2 8 7 17 8 20 3 3
-6 25 -8 48 -7 180 13 212 16 219 21 12 7 -1 34 -18 34 -9 0 -11 -5 -7 -12 6
-10 5 -10 -7 -1 -12 10 -18 10 -27 1 -8 -8 -12 -8 -12 -1 0 13 -71 43 -101 43
-25 0 -81 38 -74 50 7 11 -75 50 -103 50 -12 0 -22 3 -22 8 -1 9 -47 43 -63
46 -7 2 -19 6 -27 9 -8 3 -33 5 -55 5 -35 -1 -40 1 -38 20 2 16 -1 20 -14 15
-11 -4 -14 -3 -9 5 5 8 0 12 -13 12 -11 0 -22 4 -25 9 -4 5 3 7 14 4 11 -3 20
0 20 6 0 6 -9 11 -21 11 -19 0 -58 16 -69 29 -22 26 -63 40 -127 44 -6 0 -9 6
-6 14 3 7 -2 13 -10 13 -9 0 -25 12 -35 28 -25 34 -74 59 -134 67 -25 3 -56
15 -69 25 -12 11 -30 20 -41 20 -19 0 -43 44 -33 60 9 14 -16 23 -70 25 -28 1
-61 7 -73 14 -12 6 -22 9 -22 5 0 -3 -6 -2 -13 4 -7 6 -24 12 -37 14 -55 8
-107 64 -101 110 2 19 -50 33 -99 26 -17 -3 -30 -2 -30 1 0 14 -48 28 -65 18
-12 -6 -16 -6 -11 1 4 6 -5 12 -21 14 -23 2 -31 12 -48 56 -23 59 -49 74 -124
68 -33 -2 -50 2 -64 15 -21 19 -82 51 -105 55 -20 3 -23 8 -26 40 -2 22 -9 30
-27 32 -13 2 -31 5 -39 9 -8 3 -34 6 -58 7 -24 1 -47 7 -51 15 -5 7 -12 13
-17 13 -5 -1 -28 11 -52 26 -38 24 -55 48 -57 77 0 6 -25 13 -55 17 -110 15
-123 18 -144 40 -12 13 -31 29 -42 36 -10 7 -12 10 -4 6 11 -5 12 -4 5 4 -6 7
-25 13 -43 15 -18 2 -35 7 -40 12 -4 5 -2 5 5 1 8 -4 11 1 10 14 -1 11 -4 20
-7 21 -3 0 -15 2 -27 5 -13 2 -33 6 -45 8 -13 3 -25 5 -28 6 -3 2 -8 2 -12 1
-22 -3 -58 21 -58 39 0 11 -4 20 -8 20 -4 0 -8 10 -9 21 -2 27 -7 31 -36 34
-14 2 -34 8 -46 14 -20 11 -25 8 -22 -12 1 -5 -3 -6 -9 -2 -6 3 -8 11 -5 16 4
5 1 9 -4 9 -6 0 -11 -5 -11 -12 0 -7 -7 -5 -17 5 -10 8 -35 18 -56 21 -39 6
-67 25 -67 45 0 6 -3 10 -7 9 -14 -2 -43 14 -38 22 3 4 -5 10 -16 13 -16 4
-19 10 -14 28 5 14 4 19 -4 15 -6 -4 -11 -3 -11 2 0 6 -16 8 -35 5 -19 -3 -35
-1 -35 5 0 5 -6 9 -12 9 -7 1 -29 4 -48 7 -19 4 -41 7 -48 8 -15 2 -46 43 -57
76 -8 29 -82 63 -124 57 -16 -2 -41 3 -56 11 -15 8 -35 14 -44 14 -12 0 -17 8
-16 28 0 30 -16 52 -39 52 -9 0 -16 5 -16 12 0 6 -3 8 -6 5 -4 -4 -20 5 -37
19 -19 16 -33 22 -39 16 -12 -12 -98 15 -98 30 0 5 -3 7 -7 5 -14 -8 -33 19
-33 46 0 16 -55 45 -96 50 -17 3 -40 9 -50 15 -11 5 -25 7 -32 5 -17 -6 -72
45 -72 67 0 9 -15 27 -32 41 -29 21 -78 34 -195 51 -7 1 -15 8 -18 15 -3 9
-12 12 -24 8 -28 -8 -54 22 -49 57 4 24 0 32 -26 46 -17 9 -53 17 -79 17 -26
1 -53 7 -59 13 -7 7 -25 12 -41 12 -37 0 -70 35 -64 67 5 25 -15 48 -35 40 -7
-2 -25 2 -41 10 -15 7 -42 13 -60 12 -17 -2 -42 3 -55 10 -13 7 -30 10 -37 7
-18 -6 -48 22 -39 36 4 7 2 8 -4 4 -8 -5 -12 4 -12 26 0 30 -4 36 -36 47 -19
7 -52 14 -72 16 -69 7 -127 26 -154 52 -14 14 -28 24 -30 23 -12 -9 -48 14
-48 31 0 10 -3 18 -7 17 -5 -1 -17 3 -28 9 -11 6 -38 14 -60 18 -22 3 -55 16
-72 27 -18 11 -33 16 -33 12 0 -4 -13 5 -29 20 -18 17 -41 29 -56 29 -17 0
-22 2 -15 7 7 4 9 13 6 19 -9 15 -57 39 -87 45 -38 7 -112 38 -133 55 -10 9
-21 15 -25 14 -3 0 -5 3 -4 8 2 5 -9 9 -23 9 -19 0 -25 4 -21 15 4 8 2 17 -4
20 -5 4 -7 9 -5 13 2 4 -8 8 -22 8 -36 2 -74 12 -81 21 -3 5 -17 9 -31 11 -35
3 -103 24 -118 35 -7 6 -11 15 -9 22 5 10 -17 49 -25 44 -1 -1 -22 8 -45 20
-31 15 -60 21 -110 21 -98 0 -103 0 -103 11 0 5 -16 9 -36 9 -35 0 -64 18 -64
39 0 6 -4 11 -10 11 -5 0 -10 7 -10 16 0 9 -5 12 -12 8 -7 -4 -8 -3 -4 4 12
20 -31 52 -71 53 -147 6 -295 29 -263 42 10 4 8 6 -7 6 -12 1 -28 9 -35 20 -7
10 -21 17 -31 15 -9 -1 -15 1 -12 6 6 9 -23 22 -35 15 -4 -3 -14 3 -21 12 -10
12 -10 14 -1 9 16 -10 16 2 -1 19 -9 9 -50 13 -132 14 -115 2 -177 16 -196 44
-4 5 -9 5 -13 -1 -7 -12 -46 -4 -46 11 0 18 -51 57 -74 57 -13 0 -26 6 -29 14
-9 23 -93 37 -215 36 -143 -1 -165 2 -271 37 -72 24 -85 32 -86 52 -1 12 -8
27 -16 32 -13 8 -219 14 -349 11 -128 -4 -173 -3 -179 6 -3 5 -13 9 -21 9 -8
1 -37 4 -65 8 -27 4 -64 7 -82 8 -17 1 -30 4 -27 8 5 9 -56 30 -67 23 -5 -3
-6 -10 -3 -16 4 -5 -5 -2 -20 7 -14 9 -24 21 -21 25 3 5 1 11 -4 14 -5 4 -13
1 -17 -5 -5 -8 -3 -9 6 -4 9 6 11 4 5 -5 -6 -10 -11 -9 -21 4 -10 15 -31 17
-151 17 -162 0 -267 -6 -284 -16 -8 -5 -10 -4 -5 3 6 11 -19 18 -46 13 -5 0
-8 2 -8 7 0 4 -25 5 -56 4 -37 -3 -54 0 -50 6 3 6 2 14 -4 17 -6 4 -9 1 -8 -7
2 -10 -21 -13 -107 -14 -60 -1 -112 -2 -115 -4 -16 -6 -93 -4 -97 3 -3 5 -11
6 -19 3 -7 -3 -16 0 -20 6 -5 7 -2 8 7 3 11 -6 12 -5 2 5 -17 19 -143 21 -136
3z m93 -9 c0 -8 -19 -13 -24 -6 -3 5 1 9 9 9 8 0 15 -2 15 -3z m4104 -922 c3
-5 -1 -9 -9 -9 -8 0 -12 4 -9 9 3 4 7 8 9 8 2 0 6 -4 9 -8z m913 -507 c0 -8
-4 -12 -9 -9 -5 3 -6 10 -3 15 9 13 12 11 12 -6z m2240 -1207 c-3 -8 -6 -5 -6
6 -1 11 2 17 5 13 3 -3 4 -12 1 -19z"/>
<path d="M19360 17580 c0 -4 7 -13 16 -20 12 -11 15 -11 12 0 -4 18 21 20 49
3 19 -11 22 -11 17 2 -4 8 -11 15 -18 16 -6 0 -26 2 -43 4 -18 2 -33 0 -33 -5z"/>
<path d="M19524 17578 c-3 -5 -3 -12 0 -15 3 -4 6 0 6 8 0 11 2 11 10 -1 7
-11 10 -11 10 -2 0 8 5 10 13 6 6 -4 8 -3 4 1 -11 13 -36 15 -43 3z"/>
<path d="M25946 16657 c3 -10 9 -15 12 -12 3 3 0 11 -7 18 -10 9 -11 8 -5 -6z"/>
<path d="M26230 15110 c0 -5 5 -10 10 -10 6 0 10 5 10 10 0 6 -4 10 -10 10 -5
0 -10 -4 -10 -10z"/>
<path d="M30035 14195 c-20 -14 -20 -15 3 -21 12 -3 22 -10 22 -15 0 -5 7 -6
16 -2 19 7 15 47 -6 51 -9 1 -24 -4 -35 -13z"/>
<path d="M30171 11349 c-32 -12 -39 -17 -27 -22 10 -4 14 -12 11 -17 -4 -7
-28 -8 -67 -4 -55 6 -59 5 -56 -12 3 -21 14 -20 -202 -27 -77 -3 -115 -8 -116
-15 -3 -25 -5 -27 -14 -12 -7 11 -10 12 -10 2 0 -9 -7 -11 -20 -7 -12 4 -26 3
-33 -2 -7 -5 -19 -9 -27 -8 -22 2 -51 -15 -45 -25 3 -5 0 -12 -6 -16 -7 -4 -9
-3 -6 3 4 7 -8 14 -29 17 -29 6 -40 3 -65 -18 -17 -15 -27 -26 -22 -26 4 0 0
-7 -10 -14 -11 -8 -33 -12 -58 -9 -59 7 -157 -15 -164 -37 -3 -10 -17 -30 -30
-46 -14 -16 -25 -34 -25 -39 0 -14 -72 -35 -119 -35 -68 0 -87 -13 -94 -61 -5
-38 -37 -91 -37 -61 0 14 -45 -11 -72 -41 -9 -10 -19 -18 -22 -17 -17 4 -29
-8 -31 -31 -1 -18 -9 -25 -31 -30 -16 -3 -28 -11 -26 -18 1 -7 -6 -15 -16 -18
-12 -3 -25 -21 -32 -44 -7 -21 -17 -39 -21 -39 -4 0 -17 -20 -29 -44 -19 -40
-70 -80 -97 -75 -20 3 -23 -2 -9 -17 14 -14 14 -18 1 -38 -9 -13 -17 -33 -20
-45 -2 -11 -13 -30 -24 -43 -12 -12 -21 -28 -21 -36 0 -19 -40 -73 -49 -68
-19 12 -38 -33 -39 -95 -1 -49 -5 -67 -19 -79 -24 -19 -36 -50 -20 -50 8 0 8
-3 -2 -9 -8 -5 -11 -16 -7 -29 4 -12 1 -26 -9 -36 -9 -9 -15 -24 -14 -33 1
-10 -1 -25 -4 -33 -3 -8 -8 -31 -10 -51 -2 -19 -9 -44 -15 -55 -10 -19 -12
-26 -12 -44 0 -5 -5 -10 -11 -10 -5 0 -8 4 -5 8 6 10 -11 39 -18 31 -3 -3 -6
-21 -7 -40 -2 -18 -5 -38 -8 -44 -3 -5 -6 -30 -7 -55 -2 -25 -6 -65 -10 -90
-4 -25 -8 -56 -10 -70 -4 -39 -5 -861 -1 -898 2 -18 0 -35 -5 -38 -9 -6 -6
-33 6 -52 4 -7 9 -46 10 -85 4 -101 21 -155 53 -168 19 -7 23 -12 14 -23 -6
-7 -9 -15 -7 -17 2 -2 6 -21 9 -42 3 -24 13 -44 26 -53 12 -9 21 -25 21 -37 0
-12 4 -29 10 -37 6 -9 5 -17 -3 -22 -8 -5 -7 -8 4 -8 22 0 27 -16 22 -65 -2
-22 0 -49 5 -60 31 -65 40 -92 39 -110 -1 -14 3 -19 16 -17 9 2 17 -2 17 -8 0
-5 7 -10 15 -10 8 0 15 -5 15 -11 0 -5 3 -8 8 -5 4 2 8 -9 8 -25 1 -16 10 -37
21 -47 11 -9 23 -29 26 -44 4 -15 14 -33 22 -42 8 -8 15 -19 15 -25 0 -6 16
-17 35 -25 33 -14 44 -27 49 -58 3 -24 81 -97 108 -100 37 -5 58 -26 55 -57
-1 -14 2 -27 7 -28 5 -1 12 -6 15 -11 3 -5 32 -21 63 -35 65 -30 126 -84 122
-109 -2 -18 20 -29 66 -33 14 -1 45 -11 70 -22 57 -26 92 -37 106 -35 6 1 17
-9 24 -23 7 -13 16 -23 20 -20 3 2 12 -5 19 -17 10 -16 10 -19 -1 -13 -9 6
-10 5 -3 -3 6 -6 70 -14 145 -17 139 -7 154 -10 145 -26 -4 -5 -2 -9 4 -9 5 0
12 6 15 13 3 9 8 7 19 -5 15 -19 72 -45 62 -28 -4 6 4 5 19 -1 14 -7 23 -16
20 -20 -2 -4 5 -6 16 -4 11 2 18 0 15 -6 -4 -5 3 -9 13 -9 11 0 22 -7 26 -15
3 -8 12 -15 21 -15 8 0 15 -5 15 -12 0 -6 3 -8 7 -5 3 4 12 2 18 -3 8 -6 148
-10 371 -11 541 -1 626 0 620 10 -3 5 2 15 11 22 14 12 16 12 8 0 -5 -8 7 -4
25 9 18 13 30 17 25 9 -7 -12 -6 -12 11 1 10 8 25 23 32 33 7 9 24 17 37 17
13 0 27 5 31 11 4 8 9 7 15 -2 6 -10 12 -7 26 10 17 20 30 24 99 27 154 7 186
12 203 30 15 17 15 17 -4 4 l-20 -15 20 24 c11 13 37 30 58 38 20 8 37 19 37
25 0 5 5 6 11 3 5 -4 19 1 30 11 12 10 19 12 19 5 0 -7 10 -3 22 9 20 19 76
40 106 40 6 0 12 4 12 9 0 5 9 11 19 14 11 3 22 17 26 36 4 17 10 29 15 26 5
-3 11 -1 15 5 3 5 15 10 26 10 17 0 20 5 18 26 0 8 50 34 59 32 11 -4 62 33
62 44 0 5 6 16 14 24 11 11 16 11 19 1 3 -7 6 -5 6 6 2 30 41 89 58 86 4 -1
11 0 16 1 12 4 26 7 37 9 6 0 10 7 10 15 0 25 44 116 56 116 14 0 24 23 24 51
0 11 5 17 10 14 6 -3 10 -1 10 4 0 6 14 11 32 11 17 0 29 3 26 6 -4 3 5 22 18
41 13 20 24 44 24 53 0 22 40 113 53 121 5 4 7 14 4 23 -4 11 -1 16 11 16 15
0 15 2 2 10 -14 9 -8 12 16 9 9 -1 54 55 54 69 0 6 4 12 9 12 7 0 12 41 12
103 0 9 6 17 12 17 7 0 6 4 -3 10 -12 7 -12 16 -4 50 7 25 8 43 2 46 -5 3 0
13 11 21 12 8 21 20 21 27 0 7 11 23 25 36 14 13 25 29 25 36 0 6 8 18 17 25
15 12 16 12 8 -1 -6 -12 -5 -13 5 -3 8 7 15 21 16 30 11 67 17 233 18 443 1
135 5 251 9 258 5 6 5 12 0 12 -9 0 -11 50 -14 336 -1 239 -18 376 -49 409
-11 12 -20 26 -20 32 0 6 -8 13 -18 15 -18 5 -70 138 -77 199 -7 54 -28 109
-42 109 -7 0 -16 7 -19 15 -4 8 -11 12 -18 8 -7 -4 -6 -1 1 7 10 11 10 17 -2
30 -9 10 -18 28 -20 41 -12 65 -18 80 -33 88 -13 7 -17 24 -17 67 l0 57 -47
14 c-47 13 -64 31 -77 80 -3 12 -10 22 -14 22 -19 -1 -131 108 -145 141 -13
32 -42 61 -67 67 -53 12 -87 22 -92 26 -5 6 -24 74 -25 95 -1 7 -13 15 -27 18
-14 3 -42 9 -61 14 -19 5 -61 14 -93 21 -47 9 -60 15 -67 35 -6 14 -16 27 -24
30 -8 3 -17 15 -20 28 -4 15 -14 22 -33 24 -68 6 -86 10 -100 25 -12 12 -20
13 -34 4 -13 -8 -24 -8 -46 3 -15 7 -35 14 -43 14 -16 1 -70 36 -55 36 5 0 0
6 -10 14 -11 8 -23 12 -27 10 -5 -3 -8 -2 -8 3 0 4 -16 8 -35 9 -20 0 -31 -4
-28 -9 4 -6 1 -7 -8 -1 -8 5 -21 9 -29 9 -8 0 -21 4 -27 8 -7 5 -13 5 -13 0 0
-4 -4 -3 -8 4 -10 15 -119 31 -249 36 -13 1 -23 5 -23 10 0 4 -3 6 -7 4 -7 -4
-93 7 -143 18 -8 2 -19 4 -23 4 -4 1 -12 11 -17 24 -6 15 -9 17 -9 5 -1 -17
-35 -19 -61 -3 -9 5 -11 4 -6 -3 4 -7 2 -12 -4 -12 -6 0 -8 -5 -4 -12 4 -7 3
-8 -5 -4 -6 4 -9 11 -7 15 3 4 -26 7 -64 7 -42 -1 -66 -5 -63 -11 3 -5 0 -4
-8 3 -7 6 -17 12 -22 12 -4 0 -5 -6 -1 -12 6 -10 5 -10 -8 -1 -8 7 -19 10 -24
6 -5 -4 -3 -1 4 7 6 8 12 17 12 20 0 11 -45 6 -89 -11z m-345 -111 c3 -4 -1
-5 -10 -4 -8 1 -18 5 -22 8 -3 4 1 5 10 4 8 -1 18 -5 22 -8z m569 -334 c39 2
123 7 188 11 113 8 119 7 138 -14 11 -11 16 -21 12 -21 -4 0 7 -9 24 -20 18
-11 35 -31 39 -45 3 -14 10 -25 15 -25 5 0 9 -7 9 -15 0 -8 14 -16 35 -20 19
-3 50 -7 68 -10 22 -4 38 -14 47 -30 7 -13 17 -22 21 -19 4 2 11 -1 16 -8 7
-13 9 -18 12 -37 0 -5 9 -12 19 -16 9 -3 32 -19 51 -36 25 -24 35 -42 38 -73
5 -47 18 -63 52 -68 33 -4 81 -48 81 -73 0 -11 13 -45 28 -75 20 -41 32 -55
47 -53 20 2 65 -43 65 -64 0 -7 5 -13 11 -13 6 0 9 -18 8 -45 -2 -24 0 -47 4
-51 10 -10 9 -26 -1 -20 -5 3 -9 -1 -9 -9 0 -8 5 -11 10 -8 6 4 8 0 4 -9 -3
-9 -3 -19 1 -23 7 -6 8 -11 10 -51 1 -14 8 -21 19 -20 9 0 22 -9 29 -22 6 -12
20 -30 30 -38 11 -9 12 -12 4 -8 -8 4 -5 -3 8 -15 12 -12 22 -23 22 -24 1 -1
3 -27 6 -57 2 -30 7 -66 11 -80 3 -14 7 -36 9 -50 1 -14 4 -40 7 -58 3 -19 1
-32 -5 -32 -7 0 -7 -4 0 -13 6 -7 7 -18 3 -25 -4 -7 -5 -34 -1 -60 16 -100 23
-203 25 -370 2 -95 5 -176 8 -179 3 -3 2 -16 -3 -29 -6 -14 -6 -26 0 -29 5 -3
7 -11 5 -18 -7 -20 -16 -116 -20 -222 -3 -55 -7 -116 -11 -135 -3 -19 -8 -78
-9 -130 -4 -110 -13 -168 -33 -222 -13 -31 -28 -43 -37 -28 -10 17 -35 -8 -55
-55 -9 -22 -20 -71 -24 -110 -6 -63 -55 -195 -72 -195 -3 0 -2 6 2 13 5 7 1 6
-12 -3 -51 -39 -79 -84 -89 -142 -3 -21 -10 -38 -15 -38 -6 0 -10 5 -10 11 0
5 -5 7 -11 3 -7 -4 -7 -10 -1 -16 13 -13 -13 -42 -28 -33 -6 4 -9 3 -8 -2 7
-23 -70 -108 -113 -125 -10 -4 -30 -25 -45 -47 -17 -27 -38 -44 -63 -52 -20
-7 -36 -10 -37 -8 0 2 -8 -4 -18 -13 -10 -10 -24 -18 -31 -18 -8 0 -16 -9 -20
-19 -6 -21 -37 -36 -79 -40 -8 0 -16 -7 -19 -15 -4 -10 0 -12 16 -8 12 3 20 2
17 -1 -3 -3 -17 -8 -30 -11 -91 -19 -157 -39 -170 -51 -9 -8 -32 -15 -51 -15
-19 0 -49 -4 -67 -9 -20 -6 -30 -6 -27 0 4 5 -3 6 -17 0 -13 -5 -42 -8 -65 -7
-22 0 -39 -3 -36 -8 3 -4 -5 -2 -18 6 -13 8 -48 14 -76 13 -29 0 -53 3 -53 8
0 4 -8 4 -17 -1 -17 -10 -63 4 -63 18 0 4 -26 8 -57 9 -31 0 -59 4 -62 8 -12
16 -54 47 -47 35 7 -11 4 -11 -13 -1 -11 8 -17 16 -12 19 4 3 -6 16 -23 30
-16 14 -27 19 -22 12 4 -7 -16 0 -46 16 -29 16 -59 27 -65 25 -7 -3 -13 0 -13
6 0 6 -18 16 -40 22 -22 7 -40 16 -40 21 0 5 -4 7 -8 4 -4 -2 -8 4 -9 14 -2
25 -32 70 -47 70 -6 0 -30 20 -53 44 -41 44 -53 73 -62 158 -1 5 -4 7 -8 6
-20 -5 -54 16 -59 37 -3 13 -12 26 -20 29 -8 3 -14 14 -14 25 0 10 -7 22 -16
25 -8 3 -12 10 -9 16 3 5 2 10 -3 10 -14 0 -32 48 -32 86 0 45 -17 77 -36 70
-9 -3 -12 -1 -9 4 4 6 -1 17 -9 26 -9 8 -16 24 -16 34 0 11 -9 24 -19 30 -12
6 -22 26 -26 50 -4 22 -12 46 -18 53 -7 6 -13 21 -13 32 -1 11 -4 45 -7 75 -3
30 -7 114 -8 185 -3 145 -5 161 -24 145 -8 -7 -19 -2 -36 17 -13 14 -17 23 -9
19 13 -7 13 -6 0 6 -19 17 -23 38 -8 38 9 0 8 4 -2 10 -8 5 -11 10 -6 10 5 0
2 8 -5 17 -12 15 -12 16 1 8 13 -8 13 -7 0 11 -8 10 -19 22 -23 25 -5 3 -11
87 -13 185 -2 99 -6 216 -8 262 -3 62 0 94 14 130 10 26 20 61 21 77 2 17 12
39 22 49 9 11 17 28 17 38 0 10 4 18 10 18 6 0 6 9 1 23 -11 29 -11 38 2 62 6
11 10 24 9 29 -2 5 5 3 14 -5 12 -9 15 -9 10 -1 -4 7 -2 12 6 13 10 0 11 2 0
6 -9 4 -10 8 -2 18 8 10 8 15 -1 20 -7 5 -8 10 -1 14 5 3 13 44 16 91 3 47 8
121 11 165 4 61 11 87 27 110 12 16 32 51 45 77 21 43 32 53 55 49 4 0 11 11
14 27 20 84 68 192 85 192 4 0 9 9 12 21 3 11 14 23 25 25 19 5 62 81 62 109
0 8 5 15 11 15 5 0 7 5 4 10 -3 6 1 10 9 10 9 0 16 3 16 8 0 4 25 18 55 32 37
17 58 34 66 53 6 15 26 37 43 49 17 12 34 26 37 31 3 4 10 7 15 6 13 -4 58 12
65 23 3 5 20 10 38 10 17 1 36 7 42 15 6 7 17 13 24 13 7 0 26 15 42 33 16 19
36 31 44 29 12 -5 12 -2 -1 13 -8 10 -10 16 -3 12 6 -4 13 -2 15 3 2 6 46 13
98 16 52 4 96 7 98 9 1 1 26 -2 55 -6 28 -5 84 -7 122 -5z"/>
<path d="M30990 10671 c0 -6 4 -12 8 -15 5 -3 9 1 9 9 0 8 -4 15 -9 15 -4 0
-8 -4 -8 -9z"/>
<path d="M30266 11353 c-6 -14 -5 -15 5 -6 7 7 10 15 7 18 -3 3 -9 -2 -12 -12z"/>
<path d="M30290 11349 c0 -5 5 -7 10 -4 6 3 10 8 10 11 0 2 -4 4 -10 4 -5 0
-10 -5 -10 -11z"/>
<path d="M29640 11260 c-12 -8 -10 -10 8 -10 13 0 20 4 17 10 -7 12 -6 12 -25
0z"/>
<path d="M8634 11151 c5 -7 -335 -13 -559 -11 -11 1 -168 0 -350 0 -318 0
-383 -5 -386 -31 -3 -20 -5 -25 -12 -36 -5 -7 -5 -17 -2 -23 3 -5 1 -10 -4
-10 -6 0 -11 -7 -11 -16 0 -9 5 -12 12 -8 7 5 8 3 2 -7 -12 -19 -12 -33 1 -41
6 -5 6 -8 -2 -8 -7 0 -13 -8 -13 -17 0 -15 2 -16 10 -3 5 8 10 11 10 5 -1 -18
-39 -57 -50 -50 -5 3 -13 -1 -16 -9 -3 -9 -11 -13 -16 -10 -6 4 -5 -3 1 -15 9
-16 9 -21 0 -21 -7 0 -9 -3 -6 -7 4 -3 1 -13 -6 -21 -9 -13 -9 -14 1 -8 7 4
12 2 12 -5 0 -7 3 -9 7 -6 3 4 12 2 20 -4 7 -6 13 -8 13 -3 0 4 7 -1 16 -12 8
-10 13 -13 9 -6 -7 14 0 15 23 3 9 -5 39 -11 66 -14 26 -4 53 -13 60 -21 6 -8
26 -23 45 -35 37 -21 39 -27 44 -106 3 -40 8 -52 25 -61 12 -6 25 -14 28 -17
11 -10 -20 -77 -38 -83 -10 -3 -19 -10 -19 -15 -1 -5 -2 -12 -3 -16 -1 -5 -6
-38 -10 -76 -4 -37 -12 -65 -17 -62 -5 4 -6 -1 -3 -9 3 -9 1 -16 -5 -16 -6 0
-11 -6 -11 -14 0 -8 -6 -16 -14 -19 -8 -3 -12 -16 -11 -31 4 -33 -35 -91 -60
-91 -11 0 -19 -5 -19 -10 1 -6 -5 -19 -12 -30 -10 -13 -14 -51 -14 -123 0 -83
-3 -102 -13 -94 -14 12 -40 -4 -45 -28 -2 -8 -8 -17 -13 -18 -5 -2 -7 -7 -5
-11 3 -4 -4 -7 -14 -7 -10 0 -16 4 -14 8 3 4 0 8 -5 8 -10 0 -15 -17 -14 -47
1 -7 -3 -11 -7 -8 -4 2 -10 -27 -12 -66 -3 -39 -11 -76 -17 -82 -6 -6 -11 -21
-11 -33 0 -13 -4 -26 -10 -29 -5 -3 -10 -15 -10 -26 0 -10 -4 -19 -10 -19 -5
0 -21 -12 -35 -26 -14 -14 -32 -23 -40 -20 -8 3 -14 -2 -13 -12 1 -46 -15
-148 -24 -153 -7 -4 -6 -9 1 -13 8 -5 6 -12 -4 -23 -13 -12 -13 -18 -3 -30 10
-13 7 -20 -17 -40 -17 -14 -24 -22 -17 -18 11 6 11 3 1 -13 -7 -12 -17 -18
-22 -15 -4 3 -15 -3 -23 -13 -13 -17 -13 -17 -8 -1 4 12 2 16 -8 12 -8 -3 -15
-20 -15 -38 -1 -18 -9 -54 -19 -82 -9 -27 -18 -78 -20 -112 -1 -34 -7 -70 -13
-80 -6 -10 -11 -12 -11 -5 0 6 -5 12 -11 12 -5 0 -8 -4 -5 -9 4 -5 -7 -20 -23
-33 -21 -18 -26 -29 -20 -41 6 -10 5 -18 -1 -22 -5 -3 -10 1 -10 9 0 14 -3 14
-19 -1 -10 -10 -18 -20 -18 -23 0 -3 -3 -13 -8 -23 -4 -9 -5 -26 -2 -37 3 -10
0 -21 -7 -24 -7 -3 -7 -5 2 -5 8 -1 10 -6 5 -13 -4 -7 -10 -35 -13 -63 -4 -40
-9 -50 -22 -49 -10 1 -19 -2 -19 -7 -2 -13 -5 -22 -13 -41 -4 -9 -9 -25 -11
-35 -1 -10 -7 -17 -13 -16 -20 5 -54 -55 -68 -119 -1 -5 -2 -9 -4 -10 -1 -2
-3 -16 -5 -33 -9 -75 -17 -111 -29 -130 -7 -11 -14 -24 -14 -28 -1 -4 -8 -15
-17 -23 -8 -9 -12 -20 -9 -26 4 -6 3 -8 -3 -5 -9 6 -24 -16 -36 -53 -4 -10 -6
-9 -7 5 -2 37 -30 -59 -32 -110 -1 -36 -9 -60 -27 -84 -13 -19 -19 -31 -12
-27 14 9 -5 -28 -26 -52 -7 -7 -13 -20 -13 -28 0 -8 -5 -14 -11 -14 -5 0 -8
-4 -5 -9 3 -5 0 -20 -7 -35 -10 -19 -17 -22 -25 -14 -7 7 -15 8 -19 4 -4 -4
-1 -11 7 -16 13 -9 13 -10 0 -11 -8 -1 -18 -1 -22 0 -5 0 -8 -12 -8 -28 0 -15
-5 -42 -11 -60 -9 -27 -16 -31 -47 -32 -45 -2 -52 -3 -77 -14 -23 -10 -45 -37
-39 -46 2 -4 -4 -13 -13 -20 -12 -10 -14 -10 -9 -1 5 8 0 12 -16 12 -17 0 -19
-3 -9 -9 20 -13 -4 -24 -35 -17 -14 4 -23 3 -21 -1 3 -4 -8 -9 -25 -9 -17 -1
-34 -7 -38 -14 -6 -10 -9 -9 -13 1 -4 11 -6 11 -6 1 -1 -7 -5 -11 -10 -7 -5 3
-17 -2 -25 -11 -9 -8 -16 -12 -16 -8 0 3 -6 2 -13 -5 -9 -7 -14 -40 -15 -105
-1 -94 -1 -94 26 -103 29 -9 1688 -10 1697 -1 8 7 8 200 0 220 -4 9 -14 16
-23 16 -16 -1 -237 12 -292 17 -14 1 -34 3 -46 4 -29 1 -77 48 -70 67 3 8 2
13 -3 10 -4 -3 -14 7 -22 22 -7 15 -20 38 -28 51 -17 27 -20 38 -25 96 -1 24
3 45 11 53 7 8 11 18 8 23 -4 5 -2 9 4 9 6 0 8 7 4 15 -3 9 2 24 11 34 9 9 19
33 22 52 4 19 11 40 17 47 5 7 11 36 13 65 1 29 4 59 6 67 4 18 48 64 48 51 0
-5 6 -8 14 -7 21 3 47 27 40 37 -3 5 -2 9 3 9 4 0 7 19 5 43 -3 33 1 47 17 61
13 12 21 31 21 53 0 18 5 33 10 33 6 0 10 6 10 13 0 8 9 22 20 32 11 10 20 13
20 7 0 -13 31 -8 62 11 15 9 56 15 118 16 52 1 104 3 115 5 11 2 24 1 29 -2 5
-3 61 -4 125 -3 149 3 161 4 161 11 0 12 29 7 34 -6 3 -8 11 -12 18 -9 25 9
138 13 138 4 0 -4 9 -6 20 -3 11 2 29 6 40 8 11 3 24 7 28 10 4 2 14 1 22 -4
8 -5 19 -5 26 1 7 6 16 4 24 -6 8 -9 18 -12 29 -7 9 5 25 8 36 8 11 -1 23 4
27 9 5 6 8 5 8 -4 0 -11 3 -11 17 0 15 12 16 12 8 -1 -7 -13 -6 -13 7 -2 12
10 18 9 28 -3 8 -9 18 -12 29 -7 9 5 25 8 36 8 11 -1 23 4 27 9 5 6 8 5 8 -4
0 -11 3 -11 17 0 15 12 16 12 8 -1 -7 -12 -6 -13 6 -3 12 10 20 9 37 -3 12 -8
22 -11 22 -5 0 5 8 8 18 6 9 -1 25 2 34 6 11 6 19 5 24 -2 4 -8 9 -7 15 2 7
11 9 11 9 1 0 -7 5 -10 10 -7 6 3 10 2 10 -4 0 -6 22 -13 50 -17 33 -4 47 -10
43 -18 -4 -7 -1 -7 8 1 12 10 18 8 29 -7 8 -11 20 -20 27 -20 7 0 13 -5 13
-11 0 -5 5 -7 10 -4 6 3 14 -4 19 -17 4 -13 11 -22 15 -20 3 1 8 1 11 1 3 -1
10 -2 17 -3 15 -1 76 -201 83 -271 1 -16 3 -34 4 -39 0 -5 10 -1 21 9 19 17
20 17 20 1 0 -9 3 -15 8 -13 8 6 25 -12 31 -33 2 -8 6 -44 9 -80 2 -36 9 -71
16 -79 9 -12 8 -13 -4 -6 -13 8 -13 7 -1 -8 11 -14 11 -17 0 -17 -9 0 -10 -3
-3 -8 24 -16 11 -177 -14 -177 -16 0 -33 -26 -25 -39 3 -5 1 -6 -5 -2 -7 4
-12 3 -12 -3 0 -5 -14 -12 -31 -16 -17 -4 -42 -13 -56 -20 -14 -7 -32 -11 -39
-8 -8 3 -14 0 -14 -7 0 -6 5 -8 10 -5 15 9 12 -1 -4 -14 -11 -9 -16 -9 -22 0
-5 8 -3 9 6 4 9 -5 11 -4 6 4 -4 6 -12 9 -17 5 -5 -3 -7 -10 -4 -15 4 -5 -1
-9 -10 -9 -10 0 -13 -5 -9 -12 6 -10 5 -10 -7 -1 -13 10 -19 8 -37 -11 -11
-13 -17 -28 -14 -32 4 -4 2 -5 -3 -1 -27 15 -37 -12 -39 -97 -1 -47 2 -86 6
-86 4 0 5 -7 2 -15 -4 -9 0 -15 7 -16 8 0 23 -3 34 -5 19 -5 26 -5 58 -3 6 0
35 0 62 0 28 -1 165 1 305 2 173 3 260 0 269 -7 9 -7 12 -7 9 -1 -4 7 92 11
294 12 165 1 302 4 305 7 3 2 15 1 27 -3 11 -4 39 -6 61 -4 54 6 111 7 305 3
91 -1 173 -2 183 -1 15 1 17 13 17 107 0 97 -2 106 -20 111 -11 3 -20 9 -20
12 0 4 -6 8 -12 9 -7 0 -22 3 -33 5 -11 2 -24 2 -29 -1 -32 -18 -117 8 -135
42 -7 12 -18 23 -24 24 -7 0 -28 2 -47 3 -19 1 -46 8 -60 16 -39 24 -91 85
-97 116 -3 15 -12 27 -20 27 -7 0 -17 8 -20 18 -4 9 -17 31 -30 48 -12 17 -20
34 -16 37 3 4 1 7 -5 7 -7 0 -12 9 -12 20 0 11 -4 29 -10 40 -5 11 -14 29 -20
39 -5 11 -12 52 -15 92 -6 82 -9 89 -36 89 -10 0 -19 6 -19 14 0 7 -7 19 -15
26 -9 7 -14 19 -11 27 3 8 1 11 -4 8 -6 -3 -11 1 -11 9 -2 26 -4 30 -21 56 -8
14 -18 50 -22 80 -3 30 -7 67 -9 82 -5 35 -41 94 -56 90 -7 -1 -10 2 -6 7 7
12 -29 33 -40 23 -5 -4 -5 -2 -2 4 4 7 0 14 -8 18 -8 3 -15 17 -15 31 0 15 -5
35 -11 46 -6 11 -12 54 -14 94 -4 82 -12 118 -26 110 -5 -4 -9 1 -9 10 0 9 -4
14 -8 11 -5 -3 -15 7 -23 22 -7 15 -22 39 -33 54 -17 24 -22 42 -25 86 -1 6
-8 12 -16 12 -17 0 -19 9 -5 30 5 9 5 19 -2 27 -6 7 -8 13 -5 13 3 0 0 21 -8
48 -8 26 -15 58 -15 72 0 20 -2 22 -10 10 -7 -10 -10 -11 -10 -2 0 7 -8 16
-17 19 -10 4 -27 17 -39 30 -11 12 -24 20 -27 17 -12 -12 -27 39 -26 88 1 60
-10 148 -20 163 -4 6 -7 17 -7 25 1 8 -12 20 -28 25 -29 10 -42 34 -50 93 -2
13 -13 32 -25 43 -16 15 -21 32 -21 72 0 29 -6 59 -12 66 -11 11 -10 12 2 6
12 -7 13 -6 3 7 -7 8 -10 18 -6 21 3 4 -2 7 -13 7 -16 0 -17 2 -4 10 9 6 10
10 3 10 -16 0 -64 71 -56 83 3 6 1 7 -5 3 -11 -7 -27 50 -24 86 0 10 -8 23
-19 28 -11 7 -21 26 -25 50 -4 22 -10 40 -15 40 -5 0 -9 6 -9 14 0 23 -50 76
-73 77 -17 1 -18 2 -4 6 9 2 17 9 17 14 0 6 -4 8 -9 4 -6 -3 -9 3 -9 12 1 10
-7 47 -17 83 -10 36 -19 76 -21 90 -10 66 -25 144 -30 152 -3 4 -10 5 -16 2
-7 -4 -8 -2 -4 5 4 6 12 9 17 6 5 -4 9 -2 9 3 0 5 -13 15 -30 22 -20 8 -30 20
-30 33 0 11 -3 17 -7 14 -11 -12 -40 43 -36 67 3 13 -1 34 -8 47 -7 13 -14 29
-16 34 -13 50 -23 96 -28 125 -7 46 -25 80 -42 80 -8 0 -12 4 -8 10 7 12 -16
50 -31 50 -15 0 -24 23 -24 59 0 18 -12 41 -33 63 -31 33 -36 34 -90 31 -31
-1 -68 2 -82 7 -15 6 -24 6 -21 1z m-392 -1322 c15 -6 30 -18 33 -27 14 -34
33 -126 28 -137 -2 -7 3 -15 11 -18 10 -4 13 -1 10 8 -7 17 21 14 39 -5 10
-10 9 -12 -3 -6 -9 5 -8 2 3 -7 10 -9 16 -24 14 -38 -3 -17 6 -33 29 -55 27
-27 33 -42 39 -91 3 -32 13 -70 21 -85 7 -14 14 -32 14 -40 0 -7 21 -35 46
-62 62 -68 84 -120 84 -200 0 -38 5 -70 13 -78 7 -7 18 -26 25 -41 6 -15 17
-25 22 -22 6 3 7 -1 3 -10 -5 -13 -7 -14 -14 -3 -5 7 -9 11 -10 8 0 -3 -3 -14
-5 -25 -3 -11 -5 -45 -5 -74 -1 -50 -5 -59 -42 -103 l-42 -47 -237 -1 c-130 0
-239 -4 -242 -9 -3 -5 -19 -7 -36 -6 -17 1 -30 -2 -30 -9 0 -7 -3 -8 -8 -1 -4
6 -41 10 -82 10 -41 -1 -86 3 -99 7 -22 8 -97 18 -143 19 -16 0 -22 10 -20 30
1 4 -10 19 -24 34 -23 25 -26 36 -25 104 0 118 11 180 32 192 11 5 19 18 19
29 0 10 5 22 12 26 7 5 8 3 3 -7 -8 -12 -6 -12 8 0 10 8 21 11 24 7 7 -7 32
71 37 119 6 47 15 78 26 89 5 5 10 23 10 38 0 16 6 31 14 34 8 3 19 19 25 35
5 16 14 29 18 28 38 -6 54 33 61 149 2 50 8 92 11 92 3 0 12 13 19 29 8 17 22
31 34 33 21 3 21 4 4 21 -15 15 -15 17 -2 17 9 0 16 5 16 11 0 6 9 8 20 4 12
-4 20 -2 20 5 0 6 3 9 8 6 4 -2 18 2 32 10 14 7 21 14 15 15 -5 1 6 5 25 8 44
8 107 4 142 -10z m901 -1924 c-3 -9 -8 -14 -10 -11 -3 3 -2 9 2 15 9 16 15 13
8 -4z m1422 -556 c11 -17 -1 -21 -15 -4 -8 9 -8 15 -2 15 6 0 14 -5 17 -11z"/>
<path d="M15226 11129 c-15 -15 -26 -31 -26 -36 0 -12 -49 -57 -77 -72 -23
-12 -41 -61 -49 -136 -7 -61 -9 -68 -22 -93 -7 -12 -10 -28 -6 -34 4 -6 3 -8
-3 -5 -17 11 -63 -17 -69 -40 -4 -13 -10 -23 -16 -23 -5 0 -7 -4 -3 -9 3 -5 1
-12 -4 -15 -9 -6 -21 -74 -26 -145 -2 -19 -11 -40 -20 -47 -9 -7 -15 -19 -12
-26 5 -15 -10 -48 -22 -48 -5 0 -26 -17 -48 -37 -35 -33 -40 -43 -38 -78 1
-22 -4 -47 -11 -55 -6 -8 -15 -31 -20 -50 -4 -19 -8 -37 -9 -40 -14 -49 -19
-60 -30 -60 -7 0 -15 -6 -17 -12 -3 -7 -14 -14 -26 -14 -36 -2 -39 -3 -39 -16
-5 -99 -17 -186 -29 -199 -8 -8 -14 -24 -14 -35 0 -10 -7 -28 -15 -38 -8 -11
-15 -17 -15 -13 0 4 -16 -8 -35 -27 -19 -20 -35 -43 -35 -53 0 -10 -7 -36 -15
-58 -8 -22 -14 -59 -15 -82 0 -23 -6 -48 -14 -56 -8 -8 -16 -34 -18 -58 -3
-39 -7 -46 -35 -58 -18 -8 -35 -23 -39 -33 -3 -10 -10 -16 -15 -13 -5 4 -10 3
-10 -2 -1 -4 -3 -17 -5 -28 -1 -11 -5 -29 -7 -40 -3 -11 -8 -40 -13 -65 -9
-50 -10 -58 -14 -65 -1 -3 -3 -10 -4 -16 0 -6 -9 -16 -18 -23 -10 -7 -18 -18
-18 -23 0 -5 -11 -15 -25 -21 -14 -6 -24 -17 -23 -24 2 -9 -14 -14 -50 -16
-35 -2 -55 -8 -59 -18 -3 -7 -12 -14 -19 -14 -8 0 -17 -6 -20 -14 -5 -14 -14
-15 -46 -3 -10 4 -25 9 -33 12 -8 2 -20 17 -26 32 -6 16 -17 41 -25 57 -8 16
-14 42 -14 57 0 15 -5 40 -12 56 -6 15 -10 34 -9 41 1 6 -3 12 -9 12 -6 0 -8
6 -4 13 5 7 0 6 -11 -3 -10 -8 -16 -10 -12 -4 4 7 -5 16 -21 23 -68 29 -72 39
-77 173 -6 144 -9 164 -24 160 -6 -1 -11 2 -11 8 0 5 -7 10 -15 10 -8 0 -15 5
-15 10 0 6 -16 18 -35 27 -19 9 -35 21 -35 25 0 5 -4 7 -8 4 -4 -2 -8 23 -9
57 -1 106 -4 130 -19 165 -9 24 -19 32 -29 28 -10 -4 -15 1 -15 14 0 10 -6 23
-13 27 -30 19 -57 67 -57 104 0 20 -5 39 -10 41 -6 2 -14 28 -17 59 -5 47 -10
58 -34 75 -16 10 -29 25 -29 32 0 6 -4 12 -10 12 -5 0 -10 10 -10 22 0 12 -3
19 -6 15 -15 -15 -44 29 -44 68 0 77 -32 208 -60 245 -15 19 -32 45 -39 58 -7
12 -17 20 -23 16 -6 -4 -8 -3 -4 4 3 5 3 12 -1 14 -15 6 -43 67 -43 92 0 47
-24 106 -42 106 -10 0 -18 6 -18 14 0 8 -5 16 -11 18 -5 2 -11 10 -13 18 -1 8
-7 25 -14 37 -7 12 -12 29 -12 38 0 20 -49 92 -68 100 -8 3 -11 0 -7 -8 4 -6
0 -5 -7 4 -12 15 -62 16 -483 16 -313 -1 -472 -5 -477 -12 -5 -7 -8 -6 -8 1 0
14 -462 17 -470 4 -3 -4 -23 -11 -45 -14 -22 -4 -42 -11 -43 -16 -2 -6 -8 -7
-14 -4 -6 4 -8 -7 -4 -32 3 -22 5 -40 6 -42 0 -2 3 -1 8 1 14 10 6 -129 -12
-180 -17 -51 -15 -93 5 -93 5 0 9 5 9 10 0 7 6 7 18 2 25 -14 94 -21 210 -24
92 -3 105 -5 120 -24 9 -12 27 -27 40 -33 12 -7 20 -16 17 -21 -3 -4 0 -10 6
-12 6 -2 13 -21 15 -43 3 -22 10 -51 17 -64 9 -18 12 -346 12 -1385 0 -1304
-5 -1617 -25 -1642 -6 -6 -7 -14 -3 -17 3 -4 2 -7 -4 -7 -6 0 -18 -18 -27 -40
l-16 -40 -57 0 c-32 0 -52 -4 -46 -8 9 -6 4 -13 -17 -26 -17 -9 -30 -23 -30
-30 0 -11 -32 -27 -49 -25 -2 0 -7 -4 -10 -9 -4 -6 -30 -13 -59 -15 -29 -3
-60 -11 -69 -18 -9 -8 -14 -9 -10 -2 5 8 1 8 -17 0 -25 -12 -37 -46 -41 -115
-1 -17 -5 -35 -8 -38 -9 -9 21 -64 36 -65 6 -1 50 -3 97 -5 47 -2 99 -5 115
-7 17 -2 34 -2 39 1 19 10 1096 7 1096 -3 0 -6 3 -5 8 1 4 6 17 14 28 18 23 7
24 28 4 117 -4 21 -4 43 1 50 4 7 3 19 -2 26 -6 7 -8 17 -5 22 9 14 -47 42
-64 31 -14 -9 -80 18 -80 32 0 5 -4 6 -10 3 -5 -3 -10 -2 -10 3 0 5 -18 15
-40 22 -22 7 -40 18 -40 23 0 5 -7 4 -15 -3 -12 -10 -14 -8 -10 9 2 12 0 19
-5 16 -8 -5 -27 60 -22 77 1 5 -3 7 -10 5 -11 -2 -13 3 -17 35 0 6 -4 9 -7 5
-8 -7 -34 17 -34 32 0 6 -4 11 -10 11 -5 0 -10 5 -10 12 0 6 -8 20 -17 31 -29
31 -38 210 -37 718 1 422 12 845 21 836 2 -2 27 20 56 49 l53 54 50 -35 c27
-18 61 -35 76 -37 15 -2 36 -12 47 -23 12 -10 24 -15 28 -12 16 17 103 -180
103 -235 0 -21 4 -27 13 -22 7 5 7 2 -2 -10 -8 -9 -10 -16 -5 -15 22 4 35 -2
28 -13 -5 -8 -2 -9 12 -4 10 4 15 4 11 0 -4 -4 -2 -13 4 -21 6 -7 8 -13 5 -13
-4 0 3 -14 16 -32 12 -18 23 -39 24 -48 1 -8 5 -37 9 -65 4 -27 6 -51 6 -53
-1 -1 5 -15 13 -31 14 -27 32 -124 28 -148 -1 -6 5 -10 15 -8 10 1 17 8 15 15
-1 6 2 9 7 6 5 -3 7 -16 4 -29 -4 -18 -3 -19 6 -7 9 13 11 13 11 -2 0 -9 5
-20 12 -24 7 -5 8 -3 3 7 -7 12 -6 12 7 1 20 -16 27 -50 37 -176 6 -81 11
-102 26 -110 10 -6 27 -21 38 -33 11 -12 26 -19 35 -16 9 4 13 2 9 -4 -3 -5 4
-24 17 -41 19 -26 24 -49 29 -127 5 -94 18 -131 42 -121 13 5 69 -58 70 -78 1
-13 13 -45 26 -70 6 -10 7 -36 4 -58 -5 -28 -4 -38 3 -34 11 6 14 -5 27 -104
8 -57 20 -73 47 -59 13 7 18 7 14 1 -3 -6 2 -13 12 -16 31 -10 54 -74 57 -160
2 -43 7 -82 12 -85 5 -3 10 -17 10 -30 1 -13 6 -28 10 -32 11 -11 471 -15 540
-5 61 9 86 25 88 57 1 13 5 44 9 69 3 25 8 79 11 120 4 41 7 80 7 87 1 7 5 10
9 7 4 -2 13 12 20 31 7 19 17 35 22 35 5 0 15 6 23 14 11 11 11 16 1 19 -6 3
-3 6 8 7 l20 1 -20 9 c-11 5 -14 9 -6 9 8 1 20 9 28 19 8 9 12 12 9 5 -4 -6
-2 -14 4 -18 11 -7 25 38 17 58 -3 7 1 37 9 66 7 29 14 70 16 92 1 25 7 39 15
39 14 0 23 15 27 44 4 28 65 106 78 101 9 -4 14 4 16 20 1 14 9 39 17 55 9 17
12 30 8 30 -5 0 -7 26 -6 57 3 105 6 121 21 116 7 -3 20 4 28 16 8 11 20 21
26 21 6 0 19 9 29 21 9 11 21 19 25 17 8 -3 11 14 15 71 2 20 8 42 13 50 9 12
8 13 -2 7 -11 -7 -12 -4 -4 10 5 11 12 40 15 67 4 27 16 57 27 69 11 12 20 28
20 35 0 7 7 13 15 13 8 0 15 8 15 18 0 10 6 24 13 31 10 11 9 12 -2 6 -11 -6
-11 -4 -3 11 6 10 19 19 29 19 13 0 19 9 21 35 2 19 8 40 13 46 5 6 7 29 4 52
-2 24 1 42 6 42 6 0 7 5 4 10 -3 6 2 10 12 10 10 0 23 10 28 23 8 17 18 22 46
22 24 0 35 4 32 12 -3 6 9 19 26 28 17 8 31 12 31 8 0 -5 5 0 11 10 5 9 19 17
29 17 11 0 19 5 18 12 -4 16 44 19 57 4 12 -15 57 -41 67 -38 4 1 10 -7 13
-18 4 -11 10 -18 14 -15 5 2 8 -3 7 -13 -1 -33 14 -103 23 -98 4 3 8 -1 8 -9
0 -8 -4 -12 -9 -9 -10 6 -11 -10 -1 -20 10 -10 11 -46 1 -40 -4 3 -8 -2 -8
-10 0 -8 5 -18 10 -21 6 -3 10 -13 10 -21 0 -9 -5 -12 -12 -8 -7 4 -8 3 -4 -4
4 -6 1 -33 -7 -59 -8 -27 -13 -85 -13 -130 1 -46 -1 -83 -4 -83 -4 0 -4 -133
1 -720 2 -230 -11 -290 -65 -290 -35 0 -100 -35 -91 -49 3 -5 1 -12 -5 -16 -6
-4 -7 -11 -4 -17 4 -7 2 -8 -5 -4 -9 6 -9 11 0 22 8 10 8 14 0 14 -6 0 -14
-12 -17 -27 -7 -25 -8 -25 -15 -8 -6 15 -8 16 -8 4 -1 -16 -41 -59 -41 -44 0
4 -8 1 -17 -6 -16 -13 -17 -12 -4 4 14 17 13 17 -15 6 -16 -7 -35 -18 -43 -23
-12 -9 -13 -8 -6 4 6 12 5 12 -5 3 -8 -7 -22 -8 -41 -3 -18 6 -31 5 -35 -2 -5
-7 -2 -8 7 -4 8 4 3 -1 -10 -12 -21 -17 -24 -29 -27 -106 -3 -83 -3 -86 19
-87 12 0 31 -3 42 -6 22 -5 1548 -6 1607 0 21 2 34 -1 31 -6 -3 -5 6 -2 19 7
14 9 28 13 31 10 4 -4 12 -2 20 4 8 7 12 30 10 69 -4 79 -5 83 -15 77 -4 -3
-8 0 -8 6 0 23 -60 72 -80 67 -11 -3 -18 -1 -15 3 7 11 -18 17 -75 20 -84 3
-89 4 -84 12 8 13 -21 9 -35 -4 -11 -10 -13 -10 -7 0 4 7 2 12 -5 12 -7 0 -10
3 -6 6 3 4 -1 13 -9 21 -8 9 -13 21 -10 29 3 7 -2 18 -10 24 -8 7 -14 9 -14 6
0 -4 -7 -1 -15 8 -8 8 -15 22 -15 31 0 11 -5 15 -15 11 -9 -3 -18 1 -21 9 -4
8 -13 15 -21 15 -8 0 -11 5 -8 10 3 6 2 10 -3 10 -12 0 -12 -15 -17 1430 -3
707 -6 1290 -6 1295 -1 6 0 15 1 20 1 6 4 48 7 95 3 60 10 91 21 104 10 10 16
21 16 25 -4 16 17 51 31 51 8 0 15 5 15 12 0 6 7 19 15 27 8 9 20 34 27 55 7
22 22 44 33 50 11 6 28 20 38 30 9 11 32 21 50 22 17 1 65 5 106 8 80 6 105
19 98 48 -3 10 0 18 6 18 7 0 5 5 -3 10 -11 7 -11 10 -2 10 10 0 10 5 1 21 -8
15 -8 19 0 15 6 -4 11 -3 11 3 0 5 -4 13 -10 16 -5 3 -10 12 -10 18 0 7 4 6
10 -3 9 -13 10 -13 10 1 0 8 -6 21 -12 28 -11 10 -10 11 3 6 12 -5 16 0 14 22
-1 15 2 38 6 50 5 13 4 25 -2 29 -7 4 -6 10 1 19 7 9 6 16 -5 25 -8 7 -15 9
-15 5 0 -3 -11 6 -24 22 -23 27 -26 28 -127 28 -57 -1 -108 -3 -114 -6 -16 -9
-894 -2 -967 8 -65 9 -68 8 -92 -18z m1351 -3954 c0 -8 -4 -12 -9 -9 -5 3 -6
10 -3 15 9 13 12 11 12 -6z m-2397 -59 c0 -3 -4 -8 -10 -11 -5 -3 -10 -1 -10
4 0 6 5 11 10 11 6 0 10 -2 10 -4z"/>
<path d="M19213 11152 c-13 -2 -23 -8 -23 -13 0 -6 5 -7 12 -3 7 4 8 3 4 -5
-6 -9 -11 -9 -22 0 -20 17 -464 15 -464 -2 0 -6 -8 -6 -19 1 -15 7 -25 5 -42
-9 -22 -17 -23 -26 -24 -144 0 -79 -5 -130 -12 -139 -9 -11 -7 -21 9 -46 16
-26 27 -32 56 -33 50 -2 100 -7 142 -15 19 -4 38 -8 43 -8 4 -1 7 -5 6 -10 0
-5 6 -13 14 -18 23 -12 48 -67 54 -118 10 -78 6 -149 -9 -172 -8 -13 -13 -37
-11 -55 2 -17 -1 -34 -7 -38 -5 -3 -10 -16 -10 -29 0 -12 -8 -31 -17 -42 -10
-10 -18 -25 -19 -31 -1 -7 -2 -22 -2 -34 -1 -11 -7 -17 -12 -14 -19 12 -59
-40 -70 -91 -7 -27 -14 -58 -17 -69 -2 -11 -6 -31 -9 -45 -13 -81 -25 -110
-44 -110 -21 0 -50 -31 -50 -53 0 -9 -4 -17 -9 -17 -12 0 -27 -50 -36 -115 -8
-61 -25 -126 -38 -142 -5 -7 -17 -13 -26 -13 -32 -1 -57 -34 -68 -95 -7 -33
-15 -71 -18 -85 -3 -14 -8 -38 -10 -54 -3 -15 -13 -45 -21 -65 -8 -20 -15 -37
-15 -38 1 -2 -1 -3 -4 -3 -2 0 -23 -11 -47 -23 -47 -25 -51 -34 -53 -135 -1
-40 -7 -78 -13 -84 -7 -7 -12 -22 -12 -35 0 -13 -4 -23 -9 -23 -5 0 -12 -13
-16 -30 -4 -16 -13 -30 -21 -30 -8 0 -14 -5 -14 -11 0 -7 -9 -9 -21 -6 -14 4
-19 2 -15 -8 2 -7 2 -16 -2 -19 -8 -9 -20 -66 -26 -131 -8 -73 -20 -112 -44
-137 -14 -16 -22 -28 -17 -28 5 0 -9 -17 -32 -37 -30 -28 -43 -48 -47 -77 -4
-21 -8 -48 -11 -60 -2 -12 -7 -39 -10 -60 -3 -22 -12 -44 -20 -50 -8 -6 -15
-30 -17 -54 -1 -34 -5 -41 -17 -37 -9 3 -12 3 -9 -1 9 -9 -15 -54 -41 -78 -12
-11 -21 -27 -21 -38 0 -10 -4 -18 -9 -18 -5 0 -15 -16 -22 -35 -7 -19 -16 -35
-20 -35 -3 0 -6 -17 -6 -37 0 -56 -12 -93 -29 -86 -14 5 -18 -8 -16 -52 1 -28
-19 -76 -29 -69 -5 3 -9 0 -9 -6 0 -7 -6 -10 -14 -7 -12 5 -30 -38 -63 -156
-2 -9 -9 -15 -14 -12 -5 4 -9 -3 -9 -14 0 -19 -32 -37 -48 -27 -5 3 -25 -3
-45 -13 -20 -10 -34 -14 -30 -7 3 6 -6 0 -21 -14 -14 -13 -24 -30 -22 -37 3
-7 0 -15 -6 -19 -7 -5 -8 -2 -4 7 4 8 -1 3 -12 -10 -14 -18 -21 -21 -27 -11
-6 9 -4 11 5 5 9 -5 11 -4 6 4 -4 6 -12 9 -17 5 -5 -3 -6 -10 -3 -16 5 -7 1
-9 -9 -5 -10 3 -17 2 -17 -3 0 -5 -7 -7 -15 -4 -8 4 -15 2 -15 -3 0 -5 -12
-10 -27 -11 -43 -4 -57 -7 -72 -16 -10 -7 -12 -6 -6 4 5 9 4 11 -3 6 -7 -4
-12 -14 -12 -22 0 -8 -5 -12 -11 -9 -7 5 -9 -24 -8 -90 1 -61 6 -98 13 -101
20 -8 1724 -9 1719 -1 -2 4 3 7 11 7 9 0 16 3 17 8 0 4 2 18 5 31 2 14 -1 28
-8 33 -10 6 -9 8 2 8 13 0 13 1 0 10 -8 5 -10 10 -4 10 10 0 2 115 -8 126 -7
7 -87 8 -94 1 -4 -3 -15 -2 -25 4 -14 7 -19 6 -19 -3 0 -10 -2 -10 -9 1 -6 9
-11 10 -15 2 -4 -6 -12 -9 -17 -5 -18 11 -68 11 -63 0 3 -6 -1 -4 -8 4 -7 8
-24 21 -37 28 -19 11 -22 11 -15 0 6 -11 5 -11 -9 0 -9 8 -21 11 -26 8 -5 -4
-13 -1 -17 5 -4 8 -3 9 4 5 7 -4 12 -2 12 3 0 6 -4 11 -9 11 -5 0 -16 3 -25 6
-9 3 -16 1 -16 -6 0 -6 4 -9 8 -6 5 3 9 -2 9 -10 0 -9 -11 -4 -30 16 -16 16
-37 30 -47 30 -19 0 -50 30 -50 48 0 7 -4 12 -10 12 -5 0 -10 5 -10 10 0 6 -9
19 -20 30 -18 18 -20 31 -17 118 3 84 6 97 22 101 14 2 15 5 4 12 -10 6 -10 9
-1 9 6 0 12 7 12 15 0 8 3 15 8 14 24 -4 52 16 52 37 0 12 4 25 10 29 5 3 7
12 3 20 -3 8 -2 23 2 33 4 9 8 35 10 57 3 52 4 55 13 53 11 -4 62 51 62 68 0
8 12 20 28 27 15 7 28 17 29 22 8 33 37 102 49 116 8 9 11 19 7 22 -3 4 0 8 8
8 28 2 34 4 58 18 16 9 64 13 147 14 68 1 124 4 124 7 0 3 21 5 48 4 26 -1 52
2 59 8 8 6 18 3 32 -9 27 -23 129 -27 127 -4 -1 7 5 16 12 18 6 3 12 0 12 -7
0 -6 -6 -8 -12 -4 -10 6 -10 4 -1 -6 19 -20 150 -21 149 -2 -1 8 5 17 12 19 6
3 12 0 12 -7 0 -6 -6 -8 -12 -4 -10 6 -10 4 -1 -6 19 -20 150 -21 149 -2 -1 8
5 17 12 19 6 3 12 0 12 -7 0 -6 -6 -8 -12 -4 -10 6 -10 4 -1 -6 19 -20 150
-21 149 -2 -1 8 5 17 13 20 10 3 11 -2 6 -19 -7 -21 -6 -22 9 -10 9 7 16 10
16 5 0 -5 5 -2 10 6 6 10 10 11 10 2 0 -14 21 -12 32 3 5 7 8 6 8 0 0 -6 14
-12 31 -13 22 -2 29 1 24 10 -4 7 0 6 7 -4 9 -10 19 -13 28 -8 22 12 143 16
159 5 10 -5 16 -5 19 3 2 7 15 6 44 -4 22 -8 51 -14 64 -14 13 0 24 -4 24 -10
0 -5 7 -10 15 -10 8 0 15 -5 15 -10 0 -6 16 -20 35 -32 21 -12 42 -35 50 -56
9 -19 21 -40 29 -46 9 -7 16 -42 20 -96 4 -55 13 -99 26 -124 10 -21 17 -44
13 -50 -3 -6 0 -5 8 2 13 12 38 18 26 6 -3 -3 9 -20 26 -36 18 -17 26 -28 20
-24 -7 4 -13 3 -13 -3 0 -5 6 -11 13 -14 9 -3 8 -8 -3 -22 -8 -10 -10 -16 -4
-12 9 5 14 -20 19 -86 4 -50 9 -102 10 -114 1 -13 -2 -23 -6 -23 -5 0 -9 -6
-9 -14 0 -8 -7 -17 -16 -20 -9 -3 -14 -11 -12 -18 6 -17 -33 -60 -49 -53 -8 2
-18 -5 -23 -18 -5 -12 -9 -18 -9 -13 -1 5 -8 3 -16 -4 -9 -7 -18 -10 -22 -7
-3 4 -12 -1 -20 -11 -9 -11 -12 -12 -8 -2 4 8 -3 3 -16 -12 -21 -23 -53 -36
-106 -40 -7 -1 -10 -5 -7 -9 3 -5 -11 -15 -31 -23 -37 -16 -42 -25 -23 -44 15
-15 20 -44 5 -35 -6 4 -8 0 -4 -10 3 -9 1 -19 -5 -23 -7 -5 -8 -2 -3 7 5 8 4
11 0 6 -5 -4 -10 -17 -12 -30 -2 -12 -8 -26 -13 -31 -14 -14 -12 -32 3 -34 6
-1 37 -3 67 -6 49 -5 1770 -7 1880 -3 l45 2 1 60 c0 69 -12 128 -26 120 -6 -4
-10 -2 -10 4 0 9 -74 39 -76 30 0 -2 -9 3 -19 11 -11 8 -16 10 -12 3 8 -13
-18 -12 -30 2 -4 4 -2 5 6 0 10 -6 12 -4 7 4 -6 9 -11 9 -21 1 -10 -8 -17 -5
-29 12 -9 12 -16 19 -16 14 0 -4 -9 2 -20 15 -10 13 -19 20 -20 15 0 -6 -6 -1
-14 9 -13 18 -14 18 -10 -10 2 -17 1 -22 -2 -12 -3 11 -12 16 -20 13 -8 -3
-13 0 -11 7 1 7 -4 11 -12 9 -7 -2 -23 6 -35 16 -11 11 -31 23 -43 27 -13 3
-23 13 -23 21 0 8 -4 13 -9 10 -13 -8 -54 61 -45 75 4 7 3 9 -4 5 -6 -3 -13 3
-17 14 -4 11 -10 18 -14 16 -10 -7 -69 121 -76 164 -9 56 -15 69 -34 75 -9 3
-25 21 -34 40 -9 20 -24 38 -32 41 -10 4 -15 20 -15 45 0 21 -4 39 -9 39 -4 0
-11 19 -14 43 -3 23 -8 51 -11 62 -2 11 -5 28 -5 37 -1 9 -8 23 -16 31 -8 8
-11 17 -8 21 4 3 2 6 -4 6 -6 0 -14 20 -17 45 -4 25 -12 45 -17 45 -6 0 -7 5
-4 10 3 6 1 10 -4 10 -6 0 -11 7 -11 15 0 8 -6 12 -14 9 -11 -4 -17 5 -22 33
-3 21 -12 45 -19 53 -7 8 -15 35 -19 60 -15 107 -19 126 -30 139 -9 12 -8 13
3 6 10 -5 12 -4 7 3 -4 7 -16 12 -27 12 -10 0 -19 7 -19 15 0 16 -8 28 -44 67
-17 18 -36 124 -38 205 0 16 -6 20 -20 18 -10 -2 -16 0 -13 6 4 5 -2 9 -12 9
-15 0 -16 2 -3 10 13 9 13 10 0 10 -13 0 -13 1 0 10 8 5 10 10 4 10 -6 0 -17
11 -24 25 -7 13 -17 22 -22 19 -4 -3 -8 4 -8 15 0 12 -6 21 -14 21 -24 0 -31
20 -38 110 -3 47 -9 94 -11 105 -3 11 -6 25 -6 32 -1 7 -8 10 -18 6 -10 -4
-14 -2 -10 4 4 6 1 10 -6 9 -6 0 -13 4 -15 9 -5 16 -46 89 -53 95 -18 15 -40
76 -36 99 3 14 -1 38 -9 52 -7 15 -16 45 -20 68 -4 22 -9 40 -13 39 -21 -2
-31 5 -31 22 0 11 -6 23 -14 26 -8 3 -16 18 -19 33 -3 15 -17 33 -32 41 -17 9
-21 16 -14 21 15 9 16 68 2 77 -9 6 -21 66 -22 115 -1 9 -9 17 -18 17 -36 0
-46 17 -48 74 -1 39 -7 61 -20 76 -13 14 -19 34 -18 61 1 22 -2 37 -6 35 -16
-10 -50 70 -53 127 -1 31 -7 57 -11 57 -5 0 -5 4 -2 10 3 5 -7 22 -22 36 -15
15 -27 30 -26 35 2 5 -1 9 -6 9 -14 0 -38 60 -46 115 -4 28 -12 56 -17 63 -6
6 -7 12 -2 12 5 0 2 4 -6 10 -8 5 -14 24 -15 43 0 19 -6 41 -12 49 -7 8 -14
24 -16 36 -2 12 -15 35 -29 51 -15 16 -24 31 -22 34 2 2 -2 10 -11 17 -8 7
-15 19 -15 27 0 7 -7 16 -15 19 -8 4 -13 10 -10 14 3 5 1 11 -5 15 -6 4 -8 10
-5 15 3 5 -7 23 -24 40 -17 19 -32 27 -36 21 -7 -13 -945 -16 -945 -3 0 4 212
7 470 6 324 0 469 3 467 10 -2 7 -151 11 -463 11 -252 0 -469 -1 -481 -3z
m410 -1303 c20 -5 37 -14 37 -19 0 -6 9 -19 21 -31 12 -12 22 -37 24 -62 11
-116 16 -178 15 -184 -1 -5 9 -11 22 -14 13 -3 22 -11 21 -17 -2 -7 0 -12 5
-11 47 7 84 -57 96 -166 7 -60 15 -106 22 -117 3 -4 18 -8 33 -8 38 0 72 -41
77 -93 7 -78 17 -132 25 -149 10 -19 13 -168 4 -213 -3 -16 -12 -35 -20 -41
-8 -6 -15 -18 -15 -27 0 -8 -12 -19 -27 -24 -25 -7 -841 -10 -885 -2 -9 1 -15
6 -12 10 2 4 -7 20 -21 35 -14 15 -28 38 -31 51 -9 36 1 306 11 323 10 16 12
21 14 47 0 9 4 14 7 11 3 -4 17 0 31 7 14 7 32 11 39 8 9 -3 14 2 14 16 0 12
6 32 14 44 8 12 20 65 27 117 8 60 19 100 29 108 13 11 13 12 0 7 -8 -4 -6 1
4 9 11 9 24 16 29 16 4 0 5 5 2 10 -3 6 5 10 19 10 21 0 25 6 31 40 4 22 10
40 15 40 4 0 5 21 2 46 -3 29 -1 45 5 41 5 -3 15 16 22 43 7 28 17 50 23 50 5
0 7 4 4 9 -3 5 9 12 28 15 19 4 37 13 40 21 3 8 12 15 21 15 8 0 15 4 15 10 0
24 102 36 163 19z m-309 -1547 c3 -5 -1 -9 -9 -9 -8 0 -12 4 -9 9 3 4 7 8 9 8
2 0 6 -4 9 -8z m160 0 c3 -5 -1 -9 -9 -9 -8 0 -12 4 -9 9 3 4 7 8 9 8 2 0 6
-4 9 -8z m160 0 c3 -5 -1 -9 -9 -9 -8 0 -12 4 -9 9 3 4 7 8 9 8 2 0 6 -4 9 -8z
m160 0 c3 -5 -1 -9 -9 -9 -8 0 -12 4 -9 9 3 4 7 8 9 8 2 0 6 -4 9 -8z m-1977
-587 c0 -8 -4 -12 -9 -9 -5 3 -6 10 -3 15 9 13 12 11 12 -6z m4147 -376 c-3
-5 -10 -7 -15 -3 -5 3 -7 10 -3 15 3 5 10 7 15 3 5 -3 7 -10 3 -15z"/>
<path d="M19301 9554 c0 -11 3 -14 6 -6 3 7 2 16 -1 19 -3 4 -6 -2 -5 -13z"/>
<path d="M23976 11148 c-10 -6 -44 -9 -75 -8 -31 1 -69 2 -86 2 -212 -3 -408
-2 -416 3 -5 4 -17 1 -26 -7 -14 -10 -15 -10 -9 0 6 11 0 12 -31 6 -21 -4 -47
-7 -58 -6 -103 6 -126 6 -129 -3 -3 -7 -5 -7 -5 0 -1 6 -32 8 -83 5 -89 -5
-147 -28 -149 -58 0 -9 -2 -60 -3 -112 -2 -52 -5 -107 -8 -122 -3 -17 -1 -25
5 -21 6 4 8 0 4 -10 -4 -10 6 -24 30 -43 30 -23 48 -28 106 -31 50 -2 76 -9
89 -21 56 -54 70 -66 63 -53 -6 10 -4 12 4 7 13 -8 35 -56 33 -68 -1 -5 3 -8
10 -8 6 0 8 -3 5 -7 -4 -3 -2 -12 3 -19 6 -6 13 -21 15 -33 3 -12 7 -30 9 -41
3 -11 0 -20 -7 -20 -7 0 -6 -4 3 -10 13 -9 13 -10 0 -10 -13 0 -13 -1 0 -10
11 -7 11 -10 2 -10 -9 0 -10 -5 -3 -18 11 -20 13 -295 12 -1587 0 -1058 -10
-1375 -43 -1375 -5 0 -6 -4 -3 -10 6 -10 5 -11 -32 -15 -31 -3 -53 -23 -53
-47 0 -16 -3 -18 -13 -10 -17 14 -97 -23 -97 -44 0 -8 -6 -15 -12 -15 -7 -1
-22 -3 -33 -4 -12 -1 -32 -8 -45 -16 -14 -7 -28 -13 -32 -14 -4 0 -16 -8 -27
-17 -11 -9 -21 -16 -23 -15 -2 1 1 -2 7 -8 5 -5 10 -31 11 -56 2 -68 13 -116
27 -116 6 -1 306 -2 666 -2 521 -1 656 1 663 11 11 18 10 172 -2 203 -6 16
-14 23 -22 19 -7 -4 -8 -3 -4 5 5 7 -4 15 -23 22 -17 6 -31 15 -31 20 0 5 -3
8 -7 7 -5 -1 -23 2 -42 6 -23 6 -36 4 -41 -4 -6 -9 -13 -7 -29 9 -13 13 -31
23 -42 24 -10 1 -20 5 -20 9 -1 4 -2 12 -3 18 0 5 -9 19 -19 31 -10 11 -21 31
-24 43 -11 40 -10 2050 1 2071 5 11 8 40 7 63 -1 31 1 42 9 37 9 -6 9 -2 1 14
-10 17 -9 21 3 21 8 0 18 9 21 20 3 11 14 20 24 20 10 0 23 11 29 25 14 31 30
32 63 1 34 -31 64 -47 75 -38 5 4 8 5 7 3 -6 -9 21 -31 38 -31 10 0 21 -9 24
-21 4 -12 12 -18 21 -15 12 5 20 -24 15 -56 0 -5 4 -8 11 -8 6 0 8 -3 5 -7 -4
-3 0 -15 10 -25 9 -10 13 -18 8 -18 -4 0 3 -8 15 -18 24 -19 42 -100 19 -86
-8 5 -9 3 -3 -7 5 -8 9 -16 9 -19 0 -3 6 -14 12 -25 8 -13 12 -15 13 -6 0 12
3 12 12 3 7 -7 22 -12 34 -12 14 0 25 -9 32 -27 6 -16 13 -37 18 -48 4 -11 8
-26 10 -34 1 -8 7 -17 12 -20 12 -9 25 -42 27 -71 0 -19 8 -27 33 -34 18 -5
32 -13 32 -18 0 -5 4 -7 8 -4 5 3 9 0 9 -7 0 -7 12 -31 27 -53 15 -23 28 -56
30 -75 5 -48 24 -91 37 -84 5 4 26 -4 44 -17 25 -16 37 -33 41 -58 4 -19 15
-41 26 -48 10 -7 16 -17 13 -22 -3 -5 2 -13 11 -18 11 -6 15 -17 12 -30 -5
-16 -2 -20 13 -17 11 2 17 0 14 -5 -3 -4 9 -13 25 -19 17 -5 30 -13 30 -16 0
-3 -5 -3 -11 1 -6 3 -3 -6 7 -20 9 -15 19 -42 21 -59 10 -95 25 -128 52 -119
8 3 11 0 7 -7 -4 -6 -1 -11 8 -11 9 0 16 -4 16 -9 0 -5 10 -8 23 -6 18 4 25
-2 35 -28 7 -17 18 -40 23 -51 8 -13 7 -16 -2 -11 -8 5 -6 -2 3 -21 9 -16 24
-46 34 -66 14 -28 21 -35 31 -26 10 8 18 4 33 -13 11 -13 17 -30 15 -37 -3 -7
-1 -11 4 -8 12 8 41 -55 41 -88 0 -14 4 -26 8 -26 4 0 16 -20 27 -45 12 -32
21 -42 27 -33 6 10 8 10 8 0 0 -7 18 -19 40 -28 22 -9 41 -22 41 -30 4 -38 7
-51 17 -77 7 -16 12 -33 12 -38 0 -5 8 -13 18 -16 36 -14 89 -82 79 -104 -1
-3 6 -13 16 -23 9 -10 17 -30 17 -44 0 -15 7 -38 17 -51 15 -22 17 -23 29 -7
11 16 13 16 19 -3 3 -12 11 -21 16 -21 6 0 7 5 3 12 -4 7 -3 8 4 4 7 -4 12
-13 12 -21 0 -8 4 -17 10 -20 6 -4 7 1 4 12 -3 10 3 5 14 -11 12 -18 20 -45
20 -67 0 -20 3 -43 7 -50 5 -6 9 -25 11 -41 4 -33 21 -69 32 -66 4 1 18 -4 32
-11 27 -13 80 -113 80 -150 0 -12 4 -31 10 -41 9 -17 36 -18 561 -19 478 0
553 1 574 15 31 20 37 49 22 120 -8 41 -11 157 -10 360 2 403 2 635 -2 1399
-4 845 -4 1240 0 1290 2 22 4 71 6 108 3 84 18 154 42 187 9 13 17 31 17 39 0
8 3 12 6 8 9 -9 32 16 27 29 -2 7 1 15 8 20 8 5 10 3 4 -7 -8 -12 -6 -12 8 0
10 8 16 16 13 18 -2 2 2 16 9 30 8 15 12 30 9 35 -3 4 2 8 11 8 10 0 13 -5 9
-12 -4 -7 -3 -8 4 -4 7 4 12 14 12 22 0 10 14 14 58 14 32 0 63 5 70 12 9 9
12 9 12 0 0 -8 7 -9 27 -1 14 5 32 8 40 5 7 -3 13 -1 13 4 0 5 10 7 21 5 12
-3 19 -2 15 2 -3 3 -1 12 6 20 7 9 10 63 9 161 -1 135 -3 148 -22 165 -12 9
-36 17 -55 17 -19 0 -34 4 -34 10 0 6 -22 8 -57 5 -86 -8 -422 -11 -417 -4 6
10 -44 17 -53 8 -7 -7 -111 -21 -138 -19 -66 5 -148 4 -151 -2 -3 -5 -11 -5
-17 -1 -16 10 -68 11 -88 2 -8 -4 -21 -4 -29 1 -8 5 -21 5 -31 0 -9 -5 -19 -6
-23 -3 -8 9 -266 10 -266 2 0 -3 -11 -5 -24 -4 -13 2 -33 -3 -44 -10 -16 -12
-18 -21 -12 -58 3 -24 6 -100 5 -170 -2 -150 -13 -140 148 -139 101 0 110 -2
134 -24 14 -13 30 -24 35 -24 6 0 24 -10 41 -22 18 -13 27 -16 23 -7 -5 7 3 1
18 -15 14 -16 26 -37 26 -46 0 -9 3 -20 7 -24 4 -3 9 -14 11 -24 6 -27 11
-508 10 -912 -1 -189 0 -635 2 -826 1 -160 -1 -234 -9 -238 -6 -4 -11 -13 -11
-19 0 -7 4 -6 10 3 7 12 9 10 7 -7 0 -12 -5 -19 -9 -17 -4 3 -8 -4 -8 -15 0
-11 -4 -23 -10 -26 -5 -3 -10 -13 -10 -21 0 -9 -7 -22 -15 -31 -8 -8 -13 -18
-11 -22 3 -4 -5 -8 -17 -9 -87 -6 -141 -11 -165 -16 -15 -3 -34 -2 -42 4 -8 5
-11 10 -7 10 16 0 -22 30 -37 30 -9 0 -16 5 -16 11 0 6 -11 24 -25 40 -13 16
-22 36 -19 43 3 8 0 17 -7 22 -8 4 -10 3 -5 -4 5 -8 2 -10 -8 -6 -9 3 -14 10
-11 15 8 12 -26 48 -41 42 -9 -3 -11 2 -7 16 3 12 1 21 -6 21 -6 0 -11 7 -11
16 0 9 -5 12 -11 8 -7 -4 -10 -1 -7 7 3 8 -3 25 -13 38 -11 13 -19 31 -19 41
0 20 -32 60 -48 60 -6 0 -14 9 -17 20 -3 11 -10 20 -15 20 -4 0 -10 9 -13 21
-3 12 -10 18 -16 14 -7 -3 -8 0 -5 9 3 9 1 16 -5 16 -6 0 -11 7 -11 15 0 8 -4
15 -8 15 -16 0 -53 88 -48 114 4 23 1 26 -22 26 -21 0 -24 2 -12 10 8 5 10 10
4 10 -5 0 -16 15 -24 34 -7 19 -21 37 -32 39 -13 4 -18 14 -18 37 0 35 -14 66
-41 92 -9 10 -15 25 -13 35 3 10 0 29 -6 43 -9 23 -10 23 -6 2 2 -12 0 -20 -5
-16 -5 3 -9 12 -9 20 0 8 -5 14 -11 14 -5 0 -7 -4 -4 -10 9 -15 0 -12 -23 9
-12 10 -22 26 -22 35 0 9 -4 16 -8 16 -12 0 -35 50 -36 80 -1 27 -37 80 -54
80 -6 0 -19 16 -28 35 -9 19 -20 35 -24 35 -11 0 -45 82 -42 102 2 10 0 18 -5
18 -4 0 -9 11 -9 25 -3 40 -12 55 -34 55 -30 0 -60 18 -60 35 0 8 -5 15 -10
15 -10 0 -35 48 -32 63 1 4 -2 7 -7 7 -5 0 -12 14 -16 30 -4 17 -11 30 -16 30
-6 0 -7 5 -4 10 4 6 3 9 -2 8 -4 -2 -19 5 -33 15 -13 9 -20 17 -15 17 5 0 0 9
-12 19 -13 12 -23 38 -27 70 -4 29 -11 49 -16 46 -12 -7 -23 14 -25 47 -2 32
-31 69 -50 61 -17 -6 -73 54 -81 87 -13 58 -30 87 -70 126 -24 23 -46 39 -49
35 -4 -3 -5 -1 -3 4 1 6 -7 26 -19 45 -12 20 -24 50 -28 68 -8 45 -37 95 -58
98 -27 4 -47 24 -47 48 0 11 -14 39 -30 60 -17 22 -30 47 -30 55 0 9 -10 23
-22 31 -22 14 -28 16 -47 19 -10 1 -26 40 -23 54 1 4 -3 7 -9 7 -6 0 -18 9
-27 19 -25 29 -79 40 -147 30 -87 -13 -238 -11 -260 3 -6 3 -19 2 -29 -4z
m-685 -721 c-10 -9 -11 -8 -5 6 3 10 9 15 12 12 3 -3 0 -11 -7 -18z"/>
<path d="M28141 9394 c0 -11 3 -14 6 -6 3 7 2 16 -1 19 -3 4 -6 -2 -5 -13z"/>
<path d="M15011 7333 c-7 -8 -11 -16 -8 -19 2 -2 10 2 17 11 17 20 9 27 -9 8z"/>
</g>
</svg>
